<svg xmlns="http://www.w3.org/2000/svg" xmlns:xlink="http://www.w3.org/1999/xlink" version="1.1" width="256" height="256" viewBox="0 0 256 256" xml:space="preserve">
<desc>Created with Fabric.js 1.7.22</desc>
<defs>
</defs>
<g transform="translate(128 128) scale(0.72 0.72)" style="">
	<g style="stroke: none; stroke-width: 0; stroke-dasharray: none; stroke-linecap: butt; stroke-linejoin: miter; stroke-miterlimit: 10; fill: none; fill-rule: nonzero; opacity: 1;" transform="translate(-175.05 -175.05000000000004) scale(3.89 3.89)" >
	<path d="M 74.011 33.148 l -6.87 4.041 c -1.636 0.962 -3.743 0.416 -4.705 -1.22 L 47.55 10.665 c -0.962 -1.636 -0.416 -3.743 1.22 -4.705 l 6.87 -4.041 c 1.636 -0.962 3.743 -0.416 4.705 1.22 L 75.23 28.443 C 76.193 30.079 75.647 32.185 74.011 33.148 z" style="stroke: none; stroke-width: 1; stroke-dasharray: none; stroke-linecap: butt; stroke-linejoin: miter; stroke-miterlimit: 10; fill: rgb(201,76,76); fill-rule: nonzero; opacity: 1;" transform=" matrix(1 0 0 1 0 0) " stroke-linecap="round" />
	<path d="M 10.171 58.986 l 2.827 -1.663 l -8.13 -13.82 l -2.827 1.663 c -1.006 0.592 -1.342 1.887 -0.75 2.893 l 5.987 10.177 C 7.87 59.242 9.165 59.578 10.171 58.986 z" style="stroke: none; stroke-width: 1; stroke-dasharray: none; stroke-linecap: butt; stroke-linejoin: miter; stroke-miterlimit: 10; fill: rgb(211,221,237); fill-rule: nonzero; opacity: 1;" transform=" matrix(1 0 0 1 0 0) " stroke-linecap="round" />
	<path d="M 74.679 21.038 l -2.827 1.663 l -8.13 -13.82 l 2.827 -1.663 c 1.006 -0.592 2.302 -0.256 2.893 0.75 l 5.987 10.177 C 76.021 19.15 75.685 20.446 74.679 21.038 z" style="stroke: none; stroke-width: 1; stroke-dasharray: none; stroke-linecap: butt; stroke-linejoin: miter; stroke-miterlimit: 10; fill: rgb(211,221,237); fill-rule: nonzero; opacity: 1;" transform=" matrix(1 0 0 1 0 0) " stroke-linecap="round" />
	<rect x="19.06" y="28.28" rx="0" ry="0" width="38.59" height="9.64" style="stroke: none; stroke-width: 1; stroke-dasharray: none; stroke-linecap: butt; stroke-linejoin: miter; stroke-miterlimit: 10; fill: rgb(211,221,237); fill-rule: nonzero; opacity: 1;" transform=" matrix(0.8619 -0.507 0.507 0.8619 -11.4874 24.0212) "/>
	<path d="M 15.324 61.277 L 1.49 37.761 c -0.962 -1.636 -0.416 -3.743 1.22 -4.705 l 6.87 -4.041 c 1.636 -0.962 3.743 -0.416 4.705 1.22 l 12.994 22.089" style="stroke: none; stroke-width: 1; stroke-dasharray: none; stroke-linecap: butt; stroke-linejoin: miter; stroke-miterlimit: 10; fill: rgb(201,76,76); fill-rule: nonzero; opacity: 1;" transform=" matrix(1 0 0 1 0 0) " stroke-linecap="round" />
	<path d="M 26.731 88.555 h -7.97 c -1.898 0 -3.437 -1.539 -3.437 -3.437 V 55.761 c 0 -1.898 1.539 -3.437 3.437 -3.437 h 7.97 c 1.898 0 3.437 1.539 3.437 3.437 v 29.357 C 30.168 87.016 28.629 88.555 26.731 88.555 z" style="stroke: none; stroke-width: 1; stroke-dasharray: none; stroke-linecap: butt; stroke-linejoin: miter; stroke-miterlimit: 10; fill: rgb(134,142,150); fill-rule: nonzero; opacity: 1;" transform=" matrix(1 0 0 1 0 0) " stroke-linecap="round" />
	<path d="M 80.17 88.555 H 72.2 c -1.898 0 -3.437 -1.539 -3.437 -3.437 V 55.761 c 0 -1.898 1.539 -3.437 3.437 -3.437 h 7.97 c 1.898 0 3.437 1.539 3.437 3.437 v 29.357 C 83.607 87.016 82.068 88.555 80.17 88.555 z" style="stroke: none; stroke-width: 1; stroke-dasharray: none; stroke-linecap: butt; stroke-linejoin: miter; stroke-miterlimit: 10; fill: rgb(134,142,150); fill-rule: nonzero; opacity: 1;" transform=" matrix(1 0 0 1 0 0) " stroke-linecap="round" />
	<path d="M 12.044 78.456 h 3.28 V 62.422 h -3.28 c -1.167 0 -2.114 0.946 -2.114 2.114 v 11.807 C 9.931 77.51 10.877 78.456 12.044 78.456 z" style="stroke: none; stroke-width: 1; stroke-dasharray: none; stroke-linecap: butt; stroke-linejoin: miter; stroke-miterlimit: 10; fill: rgb(211,221,237); fill-rule: nonzero; opacity: 1;" transform=" matrix(1 0 0 1 0 0) " stroke-linecap="round" />
	<path d="M 86.886 78.456 h -3.28 V 62.422 h 3.28 c 1.167 0 2.114 0.946 2.114 2.114 v 11.807 C 89 77.51 88.054 78.456 86.886 78.456 z" style="stroke: none; stroke-width: 1; stroke-dasharray: none; stroke-linecap: butt; stroke-linejoin: miter; stroke-miterlimit: 10; fill: rgb(211,221,237); fill-rule: nonzero; opacity: 1;" transform=" matrix(1 0 0 1 0 0) " stroke-linecap="round" />
	<rect x="30.17" y="65.62" rx="0" ry="0" width="38.59" height="9.64" style="stroke: none; stroke-width: 1; stroke-dasharray: none; stroke-linecap: butt; stroke-linejoin: miter; stroke-miterlimit: 10; fill: rgb(211,221,237); fill-rule: nonzero; opacity: 1;" transform=" matrix(1 0 0 1 0 0) "/>
	<path d="M 26.731 89.555 h -7.97 c -2.447 0 -4.437 -1.99 -4.437 -4.437 V 55.76 c 0 -2.446 1.99 -4.437 4.437 -4.437 h 7.97 c 2.447 0 4.437 1.99 4.437 4.437 v 29.358 C 31.168 87.564 29.178 89.555 26.731 89.555 z M 18.761 53.324 c -1.344 0 -2.437 1.093 -2.437 2.437 v 29.358 c 0 1.344 1.093 2.437 2.437 2.437 h 7.97 c 1.344 0 2.437 -1.093 2.437 -2.437 V 55.76 c 0 -1.344 -1.093 -2.437 -2.437 -2.437 H 18.761 z" style="stroke: none; stroke-width: 1; stroke-dasharray: none; stroke-linecap: butt; stroke-linejoin: miter; stroke-miterlimit: 10; fill: rgb(0,0,0); fill-rule: nonzero; opacity: 1;" transform=" matrix(1 0 0 1 0 0) " stroke-linecap="round" />
	<path d="M 80.17 89.555 H 72.2 c -2.447 0 -4.438 -1.99 -4.438 -4.437 V 55.76 c 0 -2.446 1.99 -4.437 4.438 -4.437 h 7.97 c 2.446 0 4.437 1.99 4.437 4.437 v 29.358 C 84.606 87.564 82.616 89.555 80.17 89.555 z M 72.2 53.324 c -1.344 0 -2.438 1.093 -2.438 2.437 v 29.358 c 0 1.344 1.094 2.437 2.438 2.437 h 7.97 c 1.344 0 2.437 -1.093 2.437 -2.437 V 55.76 c 0 -1.344 -1.093 -2.437 -2.437 -2.437 H 72.2 z" style="stroke: none; stroke-width: 1; stroke-dasharray: none; stroke-linecap: butt; stroke-linejoin: miter; stroke-miterlimit: 10; fill: rgb(0,0,0); fill-rule: nonzero; opacity: 1;" transform=" matrix(1 0 0 1 0 0) " stroke-linecap="round" />
	<path d="M 15.324 79.456 h -3.28 c -1.717 0 -3.113 -1.396 -3.113 -3.113 V 64.536 c 0 -1.717 1.396 -3.113 3.113 -3.113 h 3.28 c 0.552 0 1 0.447 1 1 v 16.033 C 16.324 79.009 15.876 79.456 15.324 79.456 z M 12.044 63.422 c -0.614 0 -1.113 0.499 -1.113 1.113 v 11.807 c 0 0.614 0.5 1.113 1.113 1.113 h 2.28 V 63.422 H 12.044 z" style="stroke: none; stroke-width: 1; stroke-dasharray: none; stroke-linecap: butt; stroke-linejoin: miter; stroke-miterlimit: 10; fill: rgb(0,0,0); fill-rule: nonzero; opacity: 1;" transform=" matrix(1 0 0 1 0 0) " stroke-linecap="round" />
	<path d="M 86.887 79.456 h -3.28 c -0.553 0 -1 -0.447 -1 -1 V 62.422 c 0 -0.553 0.447 -1 1 -1 h 3.28 c 1.717 0 3.113 1.396 3.113 3.113 v 11.807 C 90 78.059 88.604 79.456 86.887 79.456 z M 84.606 77.456 h 2.28 c 0.614 0 1.113 -0.499 1.113 -1.113 V 64.536 c 0 -0.614 -0.499 -1.113 -1.113 -1.113 h -2.28 V 77.456 z" style="stroke: none; stroke-width: 1; stroke-dasharray: none; stroke-linecap: butt; stroke-linejoin: miter; stroke-miterlimit: 10; fill: rgb(0,0,0); fill-rule: nonzero; opacity: 1;" transform=" matrix(1 0 0 1 0 0) " stroke-linecap="round" />
	<path d="M 68.763 76.259 H 30.168 c -0.552 0 -1 -0.447 -1 -1 v -9.638 c 0 -0.553 0.448 -1 1 -1 h 38.595 c 0.553 0 1 0.447 1 1 v 9.638 C 69.763 75.811 69.315 76.259 68.763 76.259 z M 31.168 74.259 h 36.595 v -7.638 H 31.168 V 74.259 z" style="stroke: none; stroke-width: 1; stroke-dasharray: none; stroke-linecap: butt; stroke-linejoin: miter; stroke-miterlimit: 10; fill: rgb(0,0,0); fill-rule: nonzero; opacity: 1;" transform=" matrix(1 0 0 1 0 0) " stroke-linecap="round" />
	<path d="M 65.406 38.665 c -0.374 0 -0.75 -0.048 -1.121 -0.144 c -1.147 -0.297 -2.11 -1.024 -2.711 -2.045 L 46.688 11.172 c -0.601 -1.021 -0.768 -2.215 -0.471 -3.363 c 0.298 -1.147 1.024 -2.109 2.046 -2.71 l 6.869 -4.042 c 2.11 -1.241 4.833 -0.533 6.074 1.575 l 14.886 25.304 c 1.239 2.108 0.533 4.833 -1.575 6.073 l 0 0 l -6.869 4.042 C 66.957 38.457 66.187 38.665 65.406 38.665 z M 57.378 2.445 c -0.419 0 -0.844 0.108 -1.231 0.336 l -6.869 4.042 c -0.561 0.33 -0.96 0.859 -1.123 1.489 c -0.163 0.63 -0.072 1.286 0.258 1.846 l 14.887 25.304 c 0.329 0.561 0.858 0.96 1.488 1.123 c 0.632 0.163 1.287 0.071 1.848 -0.258 l 6.869 -4.042 l 0.507 0.862 l -0.507 -0.862 c 1.157 -0.681 1.546 -2.178 0.864 -3.336 L 59.482 3.646 C 59.029 2.875 58.215 2.445 57.378 2.445 z" style="stroke: none; stroke-width: 1; stroke-dasharray: none; stroke-linecap: butt; stroke-linejoin: miter; stroke-miterlimit: 10; fill: rgb(0,0,0); fill-rule: nonzero; opacity: 1;" transform=" matrix(1 0 0 1 0 0) " stroke-linecap="round" />
	<path d="M 9.105 60.277 c -1.068 0 -2.109 -0.549 -2.689 -1.534 L 0.429 48.566 c -0.871 -1.48 -0.375 -3.391 1.105 -4.262 l 2.828 -1.663 c 0.477 -0.279 1.089 -0.121 1.369 0.355 l 8.13 13.819 c 0.28 0.476 0.121 1.089 -0.354 1.369 l -2.827 1.663 c 0 0 0 0 0 0 C 10.184 60.138 9.641 60.277 9.105 60.277 z M 10.172 58.986 h 0.01 H 10.172 z M 4.513 44.872 l -1.965 1.156 c -0.529 0.312 -0.706 0.995 -0.395 1.524 L 8.14 57.729 c 0.312 0.528 0.994 0.706 1.525 0.395 l 1.964 -1.155 L 4.513 44.872 z" style="stroke: none; stroke-width: 1; stroke-dasharray: none; stroke-linecap: butt; stroke-linejoin: miter; stroke-miterlimit: 10; fill: rgb(0,0,0); fill-rule: nonzero; opacity: 1;" transform=" matrix(1 0 0 1 0 0) " stroke-linecap="round" />
	<path d="M 71.853 23.701 c -0.343 0 -0.677 -0.176 -0.863 -0.493 l -8.13 -13.82 c -0.134 -0.229 -0.172 -0.501 -0.105 -0.758 c 0.066 -0.257 0.232 -0.477 0.461 -0.611 l 2.827 -1.663 c 0.716 -0.421 1.553 -0.54 2.359 -0.331 c 0.805 0.208 1.48 0.718 1.902 1.436 l 5.987 10.176 c 0.87 1.48 0.374 3.392 -1.105 4.263 l 0 0 l -2.827 1.663 C 72.2 23.656 72.025 23.701 71.853 23.701 z M 65.092 9.235 l 7.115 12.096 l 1.966 -1.156 c 0.529 -0.312 0.706 -0.996 0.395 -1.525 L 68.58 8.475 c -0.15 -0.257 -0.392 -0.439 -0.68 -0.514 c -0.286 -0.074 -0.587 -0.033 -0.844 0.118 L 65.092 9.235 z M 74.68 21.038 h 0.01 H 74.68 z" style="stroke: none; stroke-width: 1; stroke-dasharray: none; stroke-linecap: butt; stroke-linejoin: miter; stroke-miterlimit: 10; fill: rgb(0,0,0); fill-rule: nonzero; opacity: 1;" transform=" matrix(1 0 0 1 0 0) " stroke-linecap="round" />
	<path d="M 24.171 48.041 c -0.084 0 -0.168 -0.011 -0.251 -0.032 c -0.257 -0.066 -0.477 -0.232 -0.611 -0.461 l -4.887 -8.307 c -0.28 -0.476 -0.121 -1.089 0.355 -1.369 l 33.265 -19.57 c 0.228 -0.135 0.499 -0.174 0.758 -0.106 c 0.257 0.066 0.477 0.232 0.611 0.461 l 4.887 8.307 c 0.279 0.476 0.121 1.089 -0.355 1.369 l -33.265 19.57 C 24.523 47.994 24.348 48.041 24.171 48.041 z M 20.653 39.088 l 3.873 6.583 l 31.541 -18.555 l -3.872 -6.583 L 20.653 39.088 z" style="stroke: none; stroke-width: 1; stroke-dasharray: none; stroke-linecap: butt; stroke-linejoin: miter; stroke-miterlimit: 10; fill: rgb(0,0,0); fill-rule: nonzero; opacity: 1;" transform=" matrix(1 0 0 1 0 0) " stroke-linecap="round" />
	<path d="M 15.325 62.277 c -0.343 0 -0.677 -0.176 -0.863 -0.493 L 0.629 38.268 c -0.601 -1.021 -0.768 -2.215 -0.471 -3.363 c 0.297 -1.147 1.023 -2.11 2.045 -2.71 l 6.87 -4.042 c 1.021 -0.601 2.215 -0.767 3.363 -0.471 c 1.147 0.297 2.109 1.024 2.71 2.045 l 12.995 22.09 c 0.28 0.476 0.121 1.089 -0.355 1.369 c -0.475 0.281 -1.089 0.121 -1.369 -0.355 L 13.423 30.742 c -0.33 -0.561 -0.859 -0.959 -1.489 -1.123 c -0.631 -0.163 -1.287 -0.071 -1.847 0.258 l -6.87 4.042 c -0.561 0.33 -0.96 0.859 -1.123 1.489 c -0.164 0.63 -0.072 1.286 0.258 1.847 L 16.186 60.77 c 0.28 0.476 0.121 1.089 -0.355 1.369 C 15.672 62.233 15.497 62.277 15.325 62.277 z" style="stroke: none; stroke-width: 1; stroke-dasharray: none; stroke-linecap: butt; stroke-linejoin: miter; stroke-miterlimit: 10; fill: rgb(0,0,0); fill-rule: nonzero; opacity: 1;" transform=" matrix(1 0 0 1 0 0) " stroke-linecap="round" />
</g>
</g>
</svg>