<?xml version="1.0" encoding="UTF-8"?>
<!DOCTYPE svg PUBLIC "-//W3C//DTD SVG 1.1//EN" "http://www.w3.org/Graphics/SVG/1.1/DTD/svg11.dtd">
<svg version="1.1" xmlns="http://www.w3.org/2000/svg" xmlns:xlink="http://www.w3.org/1999/xlink" x="0" y="0" width="460" height="458" viewBox="0, 0, 460, 458">
  <defs>
    <linearGradient id="Gradient_1" gradientUnits="userSpaceOnUse" x1="93.699" y1="298.038" x2="447.642" y2="426.745">
      <stop offset="0" stop-color="#E6E2DC"/>
      <stop offset="0" stop-color="#DED9D2"/>
      <stop offset="0.264" stop-color="#827E81"/>
      <stop offset="0.522" stop-color="#F5F4F3"/>
      <stop offset="0.876" stop-color="#777374"/>
      <stop offset="1" stop-color="#CBCCCB"/>
      <stop offset="1" stop-color="#9E9F9E"/>
    </linearGradient>
    <linearGradient id="Gradient_2" gradientUnits="userSpaceOnUse" x1="28.854" y1="319.475" x2="382.801" y2="448.183">
      <stop offset="0" stop-color="#E6E2DC"/>
      <stop offset="0" stop-color="#DED9D2"/>
      <stop offset="0.264" stop-color="#827E81"/>
      <stop offset="0.522" stop-color="#F5F4F3"/>
      <stop offset="0.876" stop-color="#777374"/>
      <stop offset="1" stop-color="#CBCCCB"/>
      <stop offset="1" stop-color="#9E9F9E"/>
    </linearGradient>
  </defs>
  <g id="Layer_1">
    <path d="M418.04,322.106 L273.336,276.67 L209.409,129.702 L209.409,29.331 C209.409,29.331 230.854,3.245 256.933,3.245 C278.385,3.245 297.946,10.833 297.946,10.833 L303.627,178.317 L410.467,292.659 L418.04,322.106" fill="#8A8B8A"/>
    <path d="M274.237,275.671 L416.303,320.284 L409.363,293.257 L302.727,179.146 C302.538,178.929 302.418,178.647 302.404,178.358 L296.75,11.691 C292.982,10.326 275.573,4.455 256.933,4.455 C233.28,4.455 213.199,26.8 210.618,29.788 L210.618,129.456 L274.237,275.671 z M418.04,323.315 C417.92,323.315 417.801,323.302 417.674,323.259 L272.971,277.83 C272.633,277.725 272.352,277.478 272.211,277.155 L208.284,130.194 C208.213,130.033 208.178,129.878 208.178,129.702 L208.178,29.331 C208.178,29.058 208.284,28.783 208.459,28.565 C209.352,27.482 230.573,2.023 256.933,2.023 C278.371,2.023 298.185,9.623 298.389,9.694 C298.839,9.869 299.141,10.298 299.163,10.784 L304.823,177.811 L411.353,291.822 C411.494,291.97 411.592,292.159 411.641,292.35 L419.137,321.479 C419.235,321.663 419.305,321.874 419.305,322.106 C419.305,322.78 418.764,323.315 418.082,323.315 L418.04,323.315" fill="#1A1919"/>
    <path d="M70.809,350.287 L356.629,427.897 C356.629,427.897 404.041,436.265 421.078,428.686 C438.051,421.162 443.057,405.173 443.057,405.173 C443.057,405.173 430.436,361.01 424.762,357.852 L405.201,361.636 C405.201,361.636 413.582,381.752 414.032,391.103 C414.665,403.907 413.399,407.697 402.684,407.697 C391.954,407.697 347.784,404.54 341.469,388.144 C335.163,371.732 340.218,357.852 340.218,357.852 L311.819,354.702 C311.819,354.702 315.609,367.956 307.41,377.413 C299.205,386.885 294.782,385.619 277.752,380.563 L163.551,353.436 C163.551,353.436 147.78,348.389 149.039,335.135 C149.699,328.202 152.188,309.899 152.188,309.899 L128.211,302.967 C128.211,302.967 129.477,323.146 125.062,329.46 C120.646,335.768 118.129,340.815 109.917,338.299 C101.718,335.768 92.254,330.726 82.157,332.61 C72.06,334.502 70.809,350.287 70.809,350.287 z" fill="url(#Gradient_1)"/>
    <path d="M72.145,349.388 L356.938,426.717 C357.058,426.731 379.459,430.647 398.69,430.647 C408.639,430.647 416,429.62 420.571,427.581 C435.52,420.944 440.948,407.436 441.777,405.151 C437.066,388.692 428.446,362.507 424.495,359.146 L406.902,362.557 C408.808,367.303 414.862,382.912 415.249,391.054 C415.635,398.662 415.34,403.303 412.738,406.045 C410.819,408.056 407.816,408.921 402.684,408.921 C402.135,408.921 347.826,408.049 340.337,388.572 C335.057,374.847 337.483,362.964 338.615,358.9 L313.394,356.108 C314.146,360.131 315.159,370.326 308.324,378.201 C299.514,388.382 294.613,386.843 277.401,381.737 L163.27,354.618 C163.009,354.541 146.479,349.092 147.829,335.029 C148.384,329.088 150.304,314.765 150.838,310.792 L129.52,304.604 C129.716,309.717 129.941,324.623 126.06,330.163 L124.963,331.753 C121.863,336.28 119.184,340.183 113.847,340.183 C112.532,340.183 111.125,339.944 109.565,339.459 C107.702,338.89 105.782,338.193 103.813,337.476 C98.343,335.486 92.676,333.433 86.713,333.433 C85.237,333.433 83.774,333.553 82.389,333.819 C74.718,335.261 72.609,346.019 72.145,349.388 z M398.69,433.08 L398.69,433.08 C379.227,433.08 356.636,429.128 356.418,429.093 L70.478,351.468 C69.909,351.307 69.543,350.765 69.585,350.182 C69.641,349.499 71.047,333.454 81.932,331.415 C83.479,331.127 85.082,330.986 86.713,330.986 C93.112,330.986 99.236,333.222 104.65,335.185 C106.583,335.894 108.454,336.561 110.275,337.124 C111.604,337.546 112.785,337.736 113.847,337.736 C117.897,337.736 120.027,334.643 122.953,330.374 L124.063,328.765 C127.488,323.878 127.347,308.542 127.002,303.037 C126.974,302.644 127.143,302.257 127.459,302.011 C127.762,301.757 128.169,301.686 128.549,301.792 L152.526,308.732 C153.102,308.894 153.482,309.471 153.405,310.068 C153.376,310.244 150.902,328.42 150.262,335.261 C149.094,347.39 163.776,352.221 163.917,352.276 L278.034,379.382 C285.902,381.71 291.048,383.235 295.035,383.235 C299.254,383.235 302.25,381.506 306.482,376.619 C314.167,367.753 310.694,355.159 310.659,355.033 C310.532,354.646 310.63,354.225 310.883,353.915 C311.158,353.606 311.559,353.451 311.959,353.486 L340.344,356.636 C340.717,356.686 341.047,356.896 341.258,357.213 C341.449,357.529 341.491,357.916 341.371,358.268 C341.315,358.401 336.547,371.958 342.616,387.708 C348.557,403.147 392.207,406.481 402.684,406.481 C407.022,406.481 409.574,405.834 410.966,404.357 C412.957,402.269 413.16,397.944 412.823,391.167 C412.373,382.124 404.16,362.311 404.069,362.1 C403.935,361.769 403.957,361.382 404.118,361.065 C404.301,360.735 404.61,360.511 404.976,360.44 L424.53,356.657 C424.811,356.608 425.113,356.65 425.352,356.791 C431.174,360.025 442.108,397.39 444.238,404.835 C444.294,405.081 444.288,405.313 444.217,405.546 C444.006,406.221 438.845,422.14 421.577,429.811 C416.69,431.983 408.991,433.08 398.69,433.08" fill="#1A1919"/>
    <path d="M141.452,274.026 L128.844,285.487 L155.936,318.717 L155.971,318.737 L208.98,314.322 C208.98,314.322 179.948,289.502 148.413,276.825 C146.043,275.861 143.723,274.933 141.452,274.026" fill="#1A1919"/>
    <path d="M449.793,327.225 C442.178,312.178 174.899,255.64 174.899,255.64 L165.042,252.573 L108.264,234.925 L107.251,302.967 L155.936,318.717 L160.928,282.506 C187.225,295.739 208.98,314.322 208.98,314.322 C208.98,314.322 230.432,340.851 246.829,347.776 C263.24,354.702 336.428,367.569 376.809,367.443 C417.189,367.323 446.221,354.069 446.221,354.069 C446.221,354.069 457.928,343.347 449.793,327.225" fill="#2D2118"/>
    <path d="M160.928,281.296 C161.104,281.296 161.301,281.331 161.469,281.416 C187.605,294.558 209.549,313.204 209.774,313.394 C210.14,313.815 231.381,339.916 247.307,346.651 C263.514,353.486 336.105,366.233 376.225,366.233 L376.809,366.233 C414.792,366.101 443,354.147 445.525,353.044 C446.84,351.764 455.931,342.096 448.689,327.772 C443.31,317.12 281.866,279.511 174.66,256.835 L109.459,236.557 L108.496,302.081 L154.923,317.12 L159.711,282.337 C159.768,281.943 160.007,281.612 160.344,281.423 C160.535,281.331 160.724,281.296 160.928,281.296 z M376.225,368.667 C335.866,368.667 262.734,355.807 246.358,348.901 C229.87,341.94 208.917,316.179 208.031,315.089 C207.967,315.061 187.084,297.327 161.891,284.369 L157.152,318.893 C157.096,319.244 156.885,319.561 156.59,319.757 C156.266,319.947 155.901,319.997 155.563,319.877 L106.879,304.127 C106.366,303.951 106.035,303.479 106.035,302.938 L107.047,234.897 C107.047,234.518 107.245,234.151 107.561,233.92 C107.863,233.702 108.264,233.639 108.637,233.744 L175.272,254.472 C202.574,260.252 443.233,311.545 450.862,326.662 C459.334,343.432 447.149,354.857 447.037,354.963 C446.938,355.054 446.84,355.124 446.727,355.174 C446.432,355.314 416.985,368.533 376.816,368.667 L376.225,368.667" fill="#1A1919"/>
    <path d="M433.6,290.346 C419.713,278.983 331.387,219.042 316.875,178.036 C302.362,137.029 305.512,8.308 305.512,6.417 C305.512,4.526 296.414,-3.048 289.804,24.705 C289.804,24.705 297.756,167.425 304.949,185.404 C316.719,214.83 367.977,260.892 384.381,276.67 C400.792,292.448 412.12,299.071 412.12,299.071 C412.12,299.071 389.422,307.382 369.243,301.174 C349.049,294.986 253.776,208.319 242.42,188.132 C231.065,167.932 224.75,26.603 224.75,26.603 C224.75,26.603 226.923,8.589 217.178,5.279 C200.141,-0.53 188.793,12.717 171.756,26.603 C154.712,40.49 143.357,51.213 143.357,51.213 C143.357,51.213 139.574,99.166 130.743,127.558 C121.905,155.943 111.815,181.186 108.658,196.964 C105.5,212.741 108.658,238.602 108.658,238.602 C108.658,238.602 151.555,261.96 169.858,272.683 C188.16,283.405 217.178,304.232 228.534,320.003 C239.889,335.768 273.154,341.252 302.995,346.505 C360.405,356.601 422.245,354.702 439.274,346.505 C447.55,342.518 450.004,340.19 450.004,331.991 C450.004,323.779 447.48,301.701 433.6,290.346" fill="#E4E4E3"/>
    <path d="M109.79,237.843 C114.895,240.62 153.496,261.679 170.469,271.628 C187.682,281.718 217.6,302.721 229.525,319.294 C240.304,334.256 272.493,339.909 300.899,344.894 L303.206,345.295 C328.363,349.725 356.502,352.15 382.434,352.157 C408.899,352.157 429.951,349.64 438.754,345.4 C446.77,341.533 448.781,339.558 448.781,331.991 C448.781,321.712 445.419,301.596 432.827,291.288 C430.668,289.522 426.569,286.478 421.387,282.618 C393.452,261.89 328.082,213.353 315.721,178.443 C302.797,141.944 303.698,38.331 304.274,7.444 L304.295,6.417 C304.204,6.213 303.332,5.264 301.982,5.264 C300.52,5.264 295.387,6.67 291.027,24.831 C291.358,30.611 299.156,167.644 306.074,184.947 C316.431,210.822 358.344,250.394 378.496,269.393 C381.112,271.86 383.39,274.019 385.232,275.791 C401.32,291.26 412.619,297.96 412.738,298.03 C413.139,298.27 413.371,298.713 413.329,299.19 C413.287,299.662 412.977,300.069 412.542,300.225 C412.035,300.407 400.131,304.696 385.752,304.696 C379.635,304.696 373.968,303.909 368.877,302.354 C348.29,296.026 252.334,208.256 241.344,188.729 C229.996,168.515 223.788,32.439 223.535,26.659 C223.555,26.287 225.482,9.377 216.792,6.424 C214.155,5.531 211.659,5.095 209.141,5.095 C199.002,5.095 190.551,12.295 179.849,21.4 C177.515,23.39 175.082,25.464 172.523,27.553 C157.335,39.928 146.549,49.897 144.539,51.775 C144.102,56.858 140.207,101.233 131.91,127.924 C128.465,138.963 124.766,149.741 121.511,159.248 C116.28,174.477 111.758,187.64 109.853,197.202 C107.041,211.265 109.354,233.814 109.79,237.843 z M382.434,354.597 L382.434,354.597 C356.362,354.597 328.082,352.15 302.777,347.706 L300.477,347.299 C270.215,341.976 238.905,336.477 227.549,320.706 C215.934,304.577 185.615,283.321 169.246,273.737 C151.176,263.135 108.51,239.917 108.074,239.679 C107.73,239.495 107.491,239.144 107.449,238.757 C107.315,237.688 104.305,212.51 107.456,196.725 C109.41,186.986 113.938,173.768 119.198,158.446 C122.46,148.968 126.152,138.21 129.569,127.2 C138.266,99.257 142.105,51.6 142.148,51.107 C142.176,50.811 142.295,50.53 142.527,50.319 C142.625,50.222 154.108,39.407 170.983,25.654 C173.535,23.58 175.94,21.526 178.274,19.537 C188.913,10.488 198.102,2.656 209.141,2.656 C211.883,2.656 214.724,3.14 217.565,4.124 C228.125,7.71 226.059,25.971 225.967,26.744 C226.038,27.96 232.401,167.819 243.482,187.534 C254.352,206.878 349.26,293.776 369.594,300.014 C374.446,301.511 379.881,302.264 385.752,302.264 C395.955,302.264 405.074,299.964 409.25,298.713 C405.172,296.02 395.807,289.354 383.538,277.549 C381.703,275.784 379.424,273.632 376.816,271.171 C356.538,252.046 314.371,212.235 303.81,185.847 C296.631,167.896 288.918,30.611 288.581,24.782 C288.581,24.67 288.581,24.55 288.616,24.431 C292.87,6.565 298.227,2.824 301.982,2.824 C304.738,2.824 306.735,4.968 306.735,6.417 L306.714,7.479 C306.299,29.401 304.907,140.587 318.027,177.628 C330.128,211.842 395.09,260.076 422.821,280.671 C428.045,284.545 432.159,287.597 434.374,289.396 C447.663,300.28 451.213,321.283 451.213,331.991 C451.213,340.71 448.506,343.396 439.809,347.601 C430.696,351.975 409.25,354.597 382.434,354.597" fill="#1A1919"/>
    <path d="M291.457,51.966 C275.305,47.451 236.05,35.744 219.4,24.339 C217.108,22.757 213.965,23.334 212.39,25.647 C210.815,27.939 211.391,31.089 213.698,32.657 C233.139,46.003 278.469,58.927 292.152,62.632 C291.899,58.877 291.667,55.311 291.457,51.966" fill="#CBCCCB"/>
    <path d="M216.552,24.67 C215.287,24.67 214.105,25.296 213.402,26.329 C212.819,27.173 212.601,28.186 212.784,29.198 C212.98,30.21 213.543,31.068 214.387,31.651 C232.963,44.393 275.657,56.838 290.816,61.007 L290.296,52.9 C273.632,48.225 235.213,36.658 218.704,25.345 C218.071,24.901 217.326,24.67 216.552,24.67 z M292.152,63.854 C292.04,63.854 291.927,63.834 291.822,63.806 C278.301,60.143 232.625,47.12 213.008,33.67 C211.624,32.721 210.688,31.3 210.393,29.647 C210.077,28.003 210.428,26.329 211.377,24.951 C213.269,22.209 217.34,21.436 220.096,23.327 C236.578,34.64 275.713,46.291 291.78,50.791 C292.279,50.932 292.645,51.374 292.672,51.881 L293.362,62.554 C293.39,62.948 293.221,63.327 292.926,63.581 C292.694,63.757 292.419,63.854 292.152,63.854" fill="#1A1919"/>
    <path d="M294.1,90.503 C266.186,81.608 227.184,66.956 220.574,58.244 C218.887,56.044 215.723,55.607 213.487,57.295 C211.272,58.976 210.85,62.146 212.531,64.361 C222.922,78.03 277.625,95.952 294.909,101.346 C294.627,97.71 294.353,94.089 294.1,90.503" fill="#CBCCCB"/>
    <path d="M216.545,57.477 C215.702,57.477 214.9,57.752 214.225,58.265 C212.559,59.538 212.221,61.95 213.5,63.623 C223.387,76.602 275.186,93.843 293.559,99.644 C293.348,96.881 293.137,94.139 292.94,91.417 C283.391,88.345 228.147,70.218 219.597,58.982 C218.866,58.033 217.762,57.477 216.545,57.477 z M294.909,102.561 C294.782,102.561 294.663,102.541 294.543,102.506 C273.042,95.791 221.917,78.705 211.56,65.1 C209.472,62.357 210.006,58.405 212.749,56.311 C215.427,54.286 219.505,54.849 221.538,57.506 C227.486,65.339 262.453,79.127 294.473,89.343 C294.944,89.491 295.274,89.92 295.316,90.412 C295.577,93.998 295.836,97.619 296.118,101.255 C296.16,101.662 295.977,102.049 295.668,102.295 C295.443,102.471 295.176,102.561 294.909,102.561" fill="#1A1919"/>
    <path d="M309.309,137.542 C309.393,137.331 309.477,137.1 309.534,136.874 C309.829,135.511 309.562,134.146 308.866,133.057 C309.006,134.568 309.168,136.065 309.309,137.542" fill="#FFFFFE"/>
    <path d="M309.309,138.759 L309.147,138.752 C308.584,138.682 308.163,138.225 308.092,137.662 C307.952,136.186 307.79,134.694 307.649,133.183 C307.6,132.62 307.93,132.093 308.479,131.911 C309.006,131.721 309.604,131.932 309.899,132.409 C310.792,133.823 311.081,135.503 310.722,137.135 C310.659,137.436 310.553,137.718 310.448,137.999 C310.265,138.464 309.808,138.759 309.309,138.759" fill="#1A1919"/>
    <path d="M297.187,128.838 C268.084,121.736 230.77,110.05 225.334,102.175 C223.746,99.89 220.588,99.327 218.303,100.909 C216.011,102.491 215.441,105.635 217.016,107.92 C226.368,121.435 278.526,134.821 298.178,139.455 C297.848,136.01 297.51,132.452 297.187,128.838" fill="#CBCCCB"/>
    <path d="M221.165,101.226 C220.391,101.226 219.639,101.466 219,101.908 C218.156,102.491 217.6,103.364 217.41,104.369 C217.227,105.374 217.438,106.394 218.029,107.237 C227,120.189 278.561,133.514 296.8,137.873 C296.54,135.236 296.301,132.55 296.047,129.815 C271.881,123.881 230.467,111.752 224.329,102.878 C223.612,101.838 222.43,101.226 221.165,101.226 z M298.178,140.671 C298.086,140.671 297.988,140.671 297.897,140.644 C276.43,135.581 225.51,122.334 216.018,108.623 C215.069,107.252 214.717,105.585 215.02,103.933 C215.315,102.28 216.229,100.853 217.607,99.904 C220.363,97.999 224.441,98.744 226.34,101.486 C231.149,108.468 265.771,119.929 297.475,127.649 C297.988,127.776 298.354,128.205 298.41,128.726 C298.719,132.339 299.057,135.89 299.395,139.343 C299.422,139.736 299.268,140.123 298.98,140.369 C298.762,140.565 298.466,140.671 298.178,140.671" fill="#1A1919"/>
    <path d="M300.14,157.897 C279.405,155.1 242.203,148.645 229.483,140.003 C227.184,138.436 224.034,139.033 222.473,141.339 C220.905,143.639 221.502,146.788 223.809,148.35 C240.219,159.494 285.276,166.159 301.461,168.248 C301.026,165.084 300.576,161.624 300.14,157.897" fill="#CBCCCB"/>
    <path d="M226.649,140.354 C225.376,140.354 224.188,140.981 223.471,142.021 C222.29,143.765 222.754,146.155 224.491,147.337 C240.353,158.116 284.446,164.768 300.042,166.835 C299.704,164.381 299.374,161.751 299.043,158.981 C284.959,157.054 242.955,150.628 228.801,141.002 C228.168,140.58 227.416,140.354 226.649,140.354 z M301.461,169.464 L301.307,169.464 C283.272,167.138 239.544,160.514 223.12,149.362 C220.265,147.421 219.52,143.513 221.46,140.65 C223.331,137.894 227.395,137.1 230.165,138.991 C241.331,146.577 273.709,153.116 300.309,156.682 C300.85,156.772 301.293,157.202 301.342,157.757 C301.785,161.463 302.221,164.929 302.678,168.079 C302.727,168.459 302.586,168.839 302.327,169.112 C302.094,169.338 301.785,169.464 301.461,169.464" fill="#1A1919"/>
    <path d="M304.949,185.404 L304.858,185.158 C287.884,184.546 253.93,182.255 237.815,173.838 C235.347,172.552 232.295,173.507 231.008,175.976 C229.715,178.458 230.678,181.502 233.139,182.788 C253.34,193.314 295.577,195.122 310.04,195.424 C307.952,191.929 306.215,188.561 304.949,185.404" fill="#CBCCCB"/>
    <path d="M235.48,174.477 C234.053,174.477 232.752,175.272 232.084,176.545 C231.613,177.444 231.522,178.478 231.832,179.463 C232.133,180.433 232.809,181.241 233.708,181.706 C252.862,191.697 292.912,193.736 307.902,194.151 C306.299,191.366 304.999,188.744 304.014,186.347 C285.543,185.636 253.129,183.196 237.252,174.921 C236.697,174.632 236.113,174.477 235.48,174.477 z M310.04,196.647 L310.019,196.647 C293.432,196.288 252.665,194.349 232.577,183.878 C231.1,183.099 230.01,181.783 229.504,180.194 C228.998,178.599 229.152,176.896 229.926,175.42 C231.008,173.331 233.139,172.045 235.48,172.045 C236.486,172.045 237.492,172.291 238.377,172.763 C254.057,180.939 286.788,183.28 304.9,183.948 C305.371,183.956 305.793,184.244 305.983,184.686 L306.082,184.947 C307.249,187.886 308.936,191.198 311.094,194.791 C311.327,195.178 311.327,195.655 311.094,196.042 C310.883,196.415 310.483,196.647 310.04,196.647" fill="#1A1919"/>
    <path d="M320.024,209.873 C293.375,216.356 249.381,201.4 248.91,201.239 C246.266,200.325 243.405,201.731 242.491,204.353 C241.577,206.99 242.983,209.873 245.613,210.772 C247.307,211.35 277.218,221.538 304.366,221.538 C312.381,221.538 320.151,220.624 326.887,218.339 C324.496,215.498 322.19,212.671 320.024,209.873" fill="#CBCCCB"/>
    <path d="M247.25,202.174 C245.62,202.174 244.178,203.214 243.644,204.761 C242.948,206.751 244.016,208.931 246.006,209.62 C247.272,210.056 277.26,220.314 304.366,220.314 C312.149,220.314 318.998,219.456 324.777,217.733 C322.858,215.428 321.135,213.283 319.532,211.229 C315.172,212.222 310.11,212.714 304.485,212.714 C278.891,212.714 248.812,202.49 248.509,202.385 C248.094,202.244 247.672,202.174 247.25,202.174 z M304.366,222.761 C276.845,222.761 246.499,212.369 245.211,211.933 C241.949,210.808 240.206,207.229 241.331,203.967 C242.441,200.768 246.098,198.96 249.311,200.085 C249.592,200.19 279.299,210.28 304.485,210.28 C310.25,210.28 315.383,209.732 319.729,208.678 C320.207,208.572 320.699,208.741 320.988,209.12 C323.02,211.736 325.249,214.507 327.815,217.558 C328.082,217.853 328.167,218.275 328.061,218.662 C327.956,219.049 327.66,219.365 327.281,219.491 C320.91,221.657 313.19,222.761 304.366,222.761" fill="#1A1919"/>
    <path d="M338.01,230.917 C322.133,237.189 287.667,230.932 275.397,227.888 C272.69,227.205 269.948,228.857 269.28,231.564 C268.612,234.271 270.257,237.014 272.971,237.682 C274.349,238.033 297.51,243.686 318.751,243.686 C328.089,243.686 337.061,242.597 343.642,239.475 C344.205,239.214 344.69,238.842 345.098,238.42 C342.721,235.952 340.344,233.448 338.01,230.917" fill="#CBCCCB"/>
    <path d="M274.173,228.956 C272.409,228.956 270.89,230.151 270.468,231.866 C270.215,232.851 270.37,233.885 270.897,234.764 C271.424,235.636 272.268,236.261 273.259,236.493 C274.237,236.753 297.426,242.47 318.751,242.47 C329.186,242.47 337.377,241.092 343.129,238.378 L343.284,238.3 C341.399,236.331 339.529,234.342 337.672,232.338 C333.074,233.99 326.816,234.827 319.026,234.827 C302.699,234.827 283.729,231.213 275.094,229.068 C274.799,228.998 274.483,228.956 274.173,228.956 z M318.751,244.909 C297.13,244.909 273.66,239.116 272.676,238.87 C271.044,238.462 269.673,237.456 268.816,236.022 C267.944,234.588 267.698,232.9 268.105,231.276 C268.907,227.978 272.38,225.89 275.685,226.698 C284.221,228.808 302.938,232.394 319.026,232.394 C326.957,232.394 333.194,231.515 337.574,229.771 C338.039,229.596 338.566,229.716 338.91,230.088 C341.245,232.612 343.6,235.115 345.969,237.569 C346.434,238.054 346.434,238.792 345.969,239.264 C345.449,239.826 344.831,240.263 344.163,240.585 C338.094,243.447 329.544,244.909 318.751,244.909" fill="#1A1919"/>
    <path d="M354.189,247.666 C340.401,252.159 314.631,253.221 304.612,253.221 C301.813,253.221 299.556,255.477 299.556,258.269 C299.556,261.061 301.813,263.311 304.612,263.311 C308.901,263.311 345.281,263.071 362.064,255.407 C359.512,252.939 356.868,250.338 354.189,247.666" fill="#CBCCCB"/>
    <path d="M353.859,249.058 C340.091,253.298 315.735,254.444 304.612,254.444 C302.496,254.444 300.78,256.159 300.78,258.269 C300.78,260.378 302.496,262.101 304.612,262.101 C308.549,262.101 342.665,261.89 359.906,255.014 C357.922,253.08 355.905,251.097 353.859,249.058 z M304.612,264.541 C301.152,264.541 298.34,261.728 298.34,258.269 C298.34,254.823 301.152,252.011 304.612,252.011 C313.605,252.005 339.993,251.006 353.816,246.506 C354.252,246.365 354.73,246.477 355.054,246.808 C357.733,249.479 360.37,252.061 362.915,254.542 C363.196,254.823 363.336,255.225 363.266,255.611 C363.196,256.019 362.936,256.35 362.563,256.519 C345.52,264.315 308.746,264.541 304.612,264.541" fill="#1A1919"/>
    <path d="M374.889,267.685 C363.956,271.08 338.369,271.853 328.813,271.853 C326.022,271.853 323.765,274.11 323.765,276.901 C323.765,279.693 326.022,281.943 328.813,281.943 C332.793,281.943 368.09,281.788 381.013,276.178 C381.66,275.896 382.223,275.503 382.659,275.024 C380.479,272.943 377.849,270.468 374.889,267.685" fill="#CBCCCB"/>
    <path d="M374.573,269.048 C363.048,272.346 337.764,273.069 328.813,273.069 C326.697,273.069 324.988,274.792 324.988,276.901 C324.988,279.011 326.697,280.733 328.813,280.733 C332.772,280.733 367.83,280.572 380.535,275.073 C380.62,275.024 380.704,274.982 380.795,274.933 C379.424,273.646 377.913,272.205 376.274,270.658 L374.573,269.048 z M328.813,283.174 C325.354,283.174 322.542,280.354 322.542,276.901 C322.542,273.45 325.354,270.638 328.813,270.638 C337.834,270.638 363.66,269.892 374.538,266.51 C374.959,266.39 375.417,266.495 375.733,266.791 L377.948,268.886 C380.015,270.834 381.885,272.606 383.502,274.139 C383.995,274.602 384.008,275.376 383.559,275.861 C382.975,276.479 382.279,276.951 381.499,277.303 C368.35,282.998 332.821,283.174 328.813,283.174" fill="#1A1919"/>
    <path d="M394.078,285.487 C371.676,291.632 347.84,290.803 347.573,290.788 C344.774,290.677 342.44,292.842 342.334,295.64 C342.222,298.417 344.395,300.759 347.165,300.878 C347.432,300.886 348.895,300.942 351.243,300.942 C360.363,300.942 383.081,300.147 403.542,293.138 C400.883,291.14 397.706,288.608 394.078,285.487" fill="#CBCCCB"/>
    <path d="M347.502,291.998 C345.294,291.998 343.635,293.615 343.551,295.683 C343.459,297.792 345.112,299.577 347.221,299.647 C347.559,299.662 348.979,299.718 351.243,299.718 C359.75,299.718 381.182,299.015 400.954,292.701 C398.633,290.894 396.229,288.925 393.768,286.83 C376.225,291.541 357.937,292.054 350.821,292.054 C348.761,292.054 347.566,292.019 347.502,291.998 z M351.243,302.158 C348.922,302.158 347.467,302.108 347.151,302.088 C343.67,301.954 340.97,299.044 341.104,295.584 C341.245,292.209 343.987,289.558 347.355,289.558 L347.615,289.572 C347.72,289.572 348.874,289.607 350.821,289.607 C357.916,289.607 376.295,289.101 393.754,284.319 C394.133,284.193 394.555,284.292 394.879,284.565 C398.113,287.351 401.277,289.909 404.273,292.159 C404.631,292.435 404.807,292.877 404.737,293.319 C404.667,293.77 404.357,294.143 403.928,294.283 C383.221,301.385 360.187,302.158 351.243,302.158" fill="#1A1919"/>
    <path d="M226.811,64.045 C255.941,55.452 297.946,30.225 299.915,29.029 C302.305,27.588 303.072,24.494 301.645,22.103 C300.196,19.72 297.095,18.939 294.705,20.395 C294.241,20.677 253.902,44.885 226.178,53.694 C226.368,56.943 226.579,60.409 226.811,64.045" fill="#9E9F9E"/>
    <path d="M227.465,54.567 C227.605,57.069 227.76,59.706 227.936,62.428 C256.905,53.463 297.545,29.05 299.282,27.995 C301.096,26.905 301.672,24.55 300.59,22.736 C299.535,20.978 297.102,20.366 295.331,21.436 C294.944,21.667 255.21,45.511 227.465,54.567 z M226.811,65.261 C226.565,65.261 226.319,65.19 226.108,65.05 C225.805,64.833 225.616,64.487 225.594,64.115 C225.37,60.487 225.159,57.014 224.961,53.765 C224.934,53.202 225.285,52.696 225.805,52.534 C253.326,43.795 293.678,19.593 294.072,19.347 C295.049,18.757 296.174,18.447 297.306,18.447 C299.521,18.447 301.532,19.572 302.678,21.477 C304.464,24.444 303.5,28.291 300.547,30.084 C298.762,31.159 256.504,56.557 227.163,65.205 C227.043,65.24 226.93,65.261 226.811,65.261" fill="#1A1919"/>
    <path d="M294.065,54.925 C293.629,55.291 254.866,87.69 229.152,97.549 C229.371,100.341 229.602,103.159 229.834,105.972 C230.488,106.373 231.206,106.795 231.979,107.217 C259.717,96.796 298.706,64.206 300.562,62.639 C302.699,60.852 302.966,57.667 301.173,55.537 C299.38,53.413 296.203,53.132 294.065,54.925" fill="#9E9F9E"/>
    <path d="M230.995,105.248 C231.346,105.459 231.698,105.67 232.078,105.881 C259.696,95.264 298.143,63.089 299.774,61.71 C300.547,61.057 301.033,60.128 301.125,59.108 C301.223,58.097 300.899,57.104 300.246,56.331 C298.93,54.764 296.414,54.538 294.845,55.853 C294.473,56.17 256.504,87.993 230.432,98.357 C230.615,100.643 230.797,102.948 230.995,105.248 z M231.979,108.433 C231.775,108.433 231.571,108.397 231.402,108.292 C230.608,107.85 229.87,107.428 229.18,107.006 C228.857,106.81 228.646,106.464 228.611,106.077 C228.379,103.244 228.147,100.432 227.936,97.64 C227.894,97.112 228.21,96.6 228.709,96.409 C254.409,86.565 292.883,54.307 293.277,53.99 C295.836,51.839 299.971,52.218 302.116,54.749 C303.191,56.044 303.698,57.661 303.557,59.334 C303.417,60.986 302.629,62.498 301.342,63.581 C299.69,64.974 260.456,97.823 232.408,108.362 C232.267,108.412 232.12,108.433 231.979,108.433" fill="#1A1919"/>
    <path d="M304.527,94.392 C302.586,92.395 299.395,92.339 297.383,94.272 C297.004,94.659 260.667,129.506 232.836,137.683 C232.999,139.209 233.174,140.714 233.35,142.197 C235.621,143.322 238.265,144.405 241.197,145.438 C270.355,134.188 302.819,103.061 304.401,101.536 C306.405,99.588 306.468,96.403 304.527,94.392" fill="#9E9F9E"/>
    <path d="M234.482,141.403 C236.395,142.317 238.645,143.237 241.176,144.145 C270.082,132.811 302.207,101.972 303.557,100.663 C304.295,99.939 304.696,98.99 304.717,97.971 C304.746,96.951 304.366,95.987 303.641,95.249 C302.221,93.772 299.704,93.737 298.227,95.158 C297.875,95.495 262.073,129.802 234.159,138.548 L234.482,141.403 z M241.197,146.662 C241.063,146.662 240.922,146.634 240.796,146.592 C237.716,145.502 235.038,144.397 232.809,143.308 C232.436,143.111 232.183,142.76 232.133,142.345 L231.627,137.817 C231.557,137.226 231.922,136.678 232.485,136.522 C259.977,128.436 296.181,93.752 296.54,93.4 C298.952,91.065 303.072,91.144 305.399,93.548 C306.566,94.757 307.199,96.339 307.157,98.006 C307.136,99.686 306.454,101.24 305.251,102.4 C303.874,103.743 271.108,135.216 241.64,146.577 C241.485,146.627 241.344,146.662 241.197,146.662" fill="#1A1919"/>
    <path d="M250.316,178.458 C276.388,166.736 306.426,140.861 307.917,139.581 C310.019,137.753 310.244,134.561 308.409,132.452 C306.594,130.35 303.402,130.124 301.3,131.952 C300.899,132.283 263.282,164.732 237.801,172.467 C237.899,172.994 238.012,173.472 238.11,173.978 C241.527,175.722 245.69,177.198 250.316,178.458" fill="#9E9F9E"/>
    <path d="M239.369,173.24 C242.315,174.682 245.957,175.982 250.204,177.163 C276.051,165.436 305.849,139.743 307.115,138.661 C308.704,137.275 308.887,134.85 307.495,133.253 C306.166,131.721 303.627,131.53 302.094,132.874 C301.722,133.19 264.92,164.838 239.369,173.24 z M250.316,179.667 C250.204,179.667 250.105,179.659 249.993,179.624 C245.05,178.288 240.852,176.756 237.547,175.068 C237.224,174.893 236.985,174.597 236.915,174.239 L236.605,172.706 C236.479,172.087 236.844,171.482 237.449,171.3 C262.53,163.678 300.119,131.354 300.499,131.018 C303.008,128.838 307.157,129.154 309.336,131.65 C311.608,134.259 311.327,138.239 308.704,140.495 C307.431,141.614 277.063,167.776 250.816,179.561 C250.654,179.639 250.485,179.667 250.316,179.667" fill="#1A1919"/>
    <path d="M265.863,206.061 C292.476,194.565 311.045,168.163 311.98,166.813 C313.57,164.521 312.993,161.378 310.701,159.796 C308.409,158.214 305.258,158.776 303.684,161.069 C303.445,161.413 280.762,193.701 251.702,200.135 C252.496,201.034 253.326,201.948 254.184,202.897 C257.137,203.776 261.152,204.901 265.863,206.061" fill="#9E9F9E"/>
    <path d="M254.859,201.822 C257.362,202.561 261.166,203.644 265.757,204.775 C291.885,193.314 310.208,167.228 310.975,166.124 C311.559,165.28 311.784,164.261 311.601,163.256 C311.418,162.257 310.855,161.378 310.012,160.795 C308.324,159.628 305.842,160.092 304.682,161.765 C304.471,162.081 282.379,193.35 253.973,200.838 C254.268,201.169 254.563,201.491 254.859,201.822 z M265.863,207.286 C265.764,207.286 265.666,207.271 265.574,207.236 C260.554,206.006 256.419,204.831 253.839,204.065 C253.621,204.002 253.431,203.882 253.284,203.721 C252.426,202.771 251.582,201.843 250.788,200.943 C250.506,200.62 250.415,200.17 250.542,199.763 C250.682,199.347 251.02,199.045 251.441,198.939 C280.185,192.597 302.446,160.689 302.678,160.373 C304.577,157.631 308.633,156.878 311.397,158.791 C312.768,159.74 313.696,161.175 313.999,162.819 C314.301,164.472 313.935,166.139 312.986,167.51 C312.191,168.655 293.305,195.529 266.348,207.173 C266.186,207.236 266.024,207.286 265.863,207.286" fill="#1A1919"/>
    <path d="M286.084,230.158 C304.331,214.964 318.449,194.284 319.131,193.265 C320.699,190.959 320.094,187.823 317.795,186.269 C315.475,184.701 312.346,185.299 310.785,187.604 C310.602,187.865 294.874,210.913 276.065,225.236 C277.331,226.452 278.596,227.683 279.897,228.928 C281.746,229.314 283.834,229.736 286.084,230.158" fill="#9E9F9E"/>
    <path d="M280.488,227.803 C282.083,228.147 283.855,228.499 285.754,228.851 C303.711,213.74 317.542,193.455 318.119,192.597 C318.688,191.747 318.899,190.72 318.709,189.714 C318.52,188.709 317.957,187.837 317.113,187.268 C315.405,186.128 312.922,186.614 311.784,188.287 C311.137,189.257 296.02,211.139 277.928,225.342 C278.772,226.157 279.637,226.979 280.488,227.803 z M286.084,231.374 L285.867,231.353 C283.588,230.932 281.493,230.51 279.637,230.108 C279.412,230.073 279.215,229.968 279.053,229.807 C277.752,228.561 276.48,227.339 275.221,226.115 C274.968,225.869 274.834,225.518 274.855,225.166 C274.876,224.814 275.045,224.491 275.333,224.272 C293.601,210.351 309.112,187.886 309.758,186.936 C311.643,184.159 315.707,183.38 318.47,185.249 C319.855,186.192 320.791,187.612 321.107,189.257 C321.423,190.903 321.079,192.569 320.144,193.947 C319.546,194.841 305.315,215.729 286.865,231.101 C286.647,231.283 286.366,231.374 286.084,231.374" fill="#1A1919"/>
    <path d="M315.032,252.968 C326.633,238.771 332.842,216.623 333.686,213.487 C334.41,210.787 332.807,208.03 330.121,207.307 C327.421,206.589 324.651,208.186 323.941,210.878 C321.627,219.534 313.893,241.373 303.381,250.675 C304.331,251.526 305.28,252.362 306.236,253.214 C308.633,253.186 311.643,253.115 315.032,252.968" fill="#9E9F9E"/>
    <path d="M305.188,250.647 L306.693,251.99 C308.866,251.955 311.496,251.892 314.42,251.772 C325.719,237.646 331.836,215.659 332.512,213.163 C332.772,212.179 332.638,211.153 332.118,210.26 C331.612,209.381 330.782,208.748 329.797,208.487 C327.773,207.939 325.649,209.198 325.115,211.194 C322.542,220.792 315.172,240.951 305.188,250.647 z M306.236,254.436 C305.941,254.436 305.652,254.331 305.427,254.12 L302.559,251.583 C302.305,251.343 302.151,251.02 302.151,250.654 C302.158,250.323 302.305,249.986 302.573,249.761 C312.993,240.544 320.678,218.339 322.752,210.561 C323.631,207.292 327.147,205.232 330.43,206.132 C332.047,206.554 333.405,207.588 334.242,209.05 C335.071,210.491 335.303,212.179 334.86,213.796 C333.75,217.979 327.569,239.545 315.967,253.733 C315.756,254.015 315.426,254.17 315.088,254.19 C311.678,254.331 308.655,254.409 306.243,254.436 L306.236,254.436" fill="#1A1919"/>
    <path d="M328.813,271.853 C331.415,271.853 335.226,271.79 339.592,271.643 C349.738,255.33 349.893,233.87 349.893,232.788 C349.893,230.003 347.636,227.732 344.844,227.732 C342.053,227.732 339.803,230.003 339.803,232.788 C339.803,233.041 339.641,257.917 327.217,271.361 C327.463,271.558 327.688,271.748 327.92,271.944 C328.208,271.889 328.504,271.853 328.813,271.853" fill="#9E9F9E"/>
    <path d="M344.844,228.956 C342.735,228.956 341.02,230.671 341.02,232.788 C341.02,233.026 340.879,256.561 329.467,270.638 C332.209,270.623 335.584,270.553 338.889,270.44 C348.557,254.444 348.684,233.674 348.684,232.788 C348.684,230.671 346.954,228.956 344.844,228.956 z M327.92,273.169 C327.639,273.169 327.358,273.069 327.14,272.873 L326.437,272.296 C326.184,272.085 326.022,271.769 326,271.432 C325.987,271.101 326.092,270.778 326.324,270.538 C338.397,257.46 338.573,233.026 338.573,232.788 C338.573,229.335 341.385,226.522 344.844,226.522 C348.304,226.522 351.117,229.335 351.117,232.788 C351.117,233.709 351.004,255.632 340.625,272.282 C340.415,272.627 340.035,272.838 339.627,272.858 C335.816,272.999 331.879,273.069 328.813,273.069 C328.588,273.069 328.363,273.104 328.152,273.147 L327.92,273.169" fill="#1A1919"/>
    <path d="M360.707,290.557 C375.895,272.296 371.057,249.796 370.804,248.679 C370.178,245.964 367.485,244.249 364.764,244.874 C362.043,245.486 360.334,248.193 360.96,250.907 C361.002,251.146 365.784,273.337 348.663,288.447 C349.788,289.276 350.863,290.064 351.918,290.831 C354.168,290.803 357.17,290.747 360.707,290.557" fill="#9E9F9E"/>
    <path d="M350.582,288.342 C351.159,288.778 351.735,289.2 352.297,289.607 C354.85,289.579 357.473,289.502 360.102,289.361 C374.488,271.643 369.827,249.866 369.616,248.952 C369.159,246.913 367.084,245.606 365.024,246.056 C362.971,246.526 361.677,248.58 362.141,250.64 C362.198,250.865 366.993,272.753 350.582,288.342 z M351.918,292.054 C351.658,292.054 351.405,291.963 351.201,291.815 C350.139,291.049 349.056,290.261 347.938,289.417 C347.643,289.206 347.467,288.862 347.446,288.497 C347.432,288.124 347.586,287.772 347.854,287.533 C364.377,272.964 359.814,251.393 359.772,251.182 C358.999,247.813 361.129,244.452 364.49,243.679 C367.858,242.92 371.233,245.064 371.985,248.404 C372.217,249.389 377.188,272.627 361.642,291.33 C361.424,291.597 361.108,291.752 360.777,291.772 C357.782,291.928 354.801,292.026 351.932,292.054 L351.918,292.054" fill="#1A1919"/>
    <path d="M369.243,301.174 C372.336,302.138 375.5,302.741 378.637,303.093 C389.282,287.624 389.422,272.296 389.422,271.558 C389.422,268.76 387.172,266.503 384.381,266.503 C381.604,266.503 379.34,268.76 379.34,271.558 C379.34,271.713 379.199,286.71 367.836,300.667 C368.329,300.878 368.807,301.054 369.243,301.174" fill="#9E9F9E"/>
    <path d="M369.848,300.084 C372.407,300.857 375.164,301.44 378.032,301.792 C388.086,286.795 388.213,272.185 388.213,271.558 C388.213,269.448 386.491,267.726 384.381,267.726 C382.272,267.726 380.556,269.448 380.556,271.558 C380.556,271.698 380.422,286.183 369.848,300.084 z M378.637,304.303 L378.496,304.303 C375.121,303.916 371.887,303.269 368.877,302.354 C368.42,302.208 367.907,302.018 367.373,301.792 C367.014,301.645 366.754,301.335 366.663,300.963 C366.564,300.597 366.656,300.189 366.895,299.894 C377.913,286.345 378.124,271.698 378.124,271.558 C378.124,268.092 380.936,265.279 384.381,265.279 C387.848,265.279 390.66,268.092 390.66,271.558 C390.66,272.205 390.527,287.955 379.635,303.775 C379.41,304.112 379.016,304.303 378.637,304.303" fill="#1A1919"/>
    <path d="M371.655,311.89 C370.009,311.89 368.961,311.791 368.75,311.776 C365.98,311.503 363.949,309.034 364.223,306.257 C364.483,303.494 366.944,301.455 369.707,301.722 C370.6,301.807 391.743,303.479 400.18,285.213 C401.348,282.682 404.35,281.585 406.881,282.752 C409.413,283.927 410.516,286.921 409.342,289.452 C399.914,309.893 379.319,311.89 371.655,311.89" fill="#CBCCCB"/>
    <path d="M369.229,302.925 C367.253,302.925 365.629,304.408 365.432,306.377 C365.221,308.479 366.768,310.35 368.877,310.561 C369.074,310.581 370.073,310.666 371.655,310.666 C379.635,310.666 399.189,308.542 408.246,288.939 C409.125,287.026 408.288,284.741 406.368,283.862 C404.491,282.983 402.142,283.877 401.292,285.726 C394.084,301.335 378.243,303.009 371.767,303.009 C370.551,303.009 369.756,302.952 369.594,302.932 C369.475,302.925 369.355,302.925 369.229,302.925 z M371.655,313.106 C369.946,313.106 368.863,313.007 368.652,312.986 C365.193,312.655 362.676,309.576 363.006,306.145 C363.33,302.721 366.346,300.183 369.827,300.506 C369.967,300.526 370.67,300.576 371.767,300.576 C377.772,300.576 392.467,299.029 399.077,284.706 C400.461,281.677 404.329,280.227 407.395,281.647 C410.531,283.089 411.909,286.83 410.446,289.959 C400.813,310.856 380.113,313.106 371.655,313.106" fill="#1A1919"/>
    <path d="M353.198,343.522 L208.495,298.101 L144.566,151.134 L144.566,50.77 C144.566,50.77 166.012,24.67 192.083,24.67 C213.55,24.67 233.104,32.264 233.104,32.264 L238.785,199.741 L345.618,314.076 L353.198,343.522" fill="#E4E4E3"/>
    <path d="M209.395,297.096 L351.475,341.709 L344.514,314.694 L237.885,200.577 C237.688,200.366 237.569,200.085 237.569,199.783 L231.909,33.128 C228.14,31.765 210.73,25.886 192.083,25.886 C168.445,25.886 148.363,48.225 145.776,51.213 L145.776,150.881 L209.395,297.096 z M353.198,344.753 C353.071,344.753 352.952,344.732 352.832,344.69 L208.129,299.261 C207.792,299.155 207.517,298.909 207.376,298.593 L143.441,151.619 C143.371,151.472 143.343,151.303 143.343,151.134 L143.343,50.77 C143.343,50.495 143.441,50.214 143.61,49.997 C144.51,48.913 165.73,23.439 192.083,23.439 C213.529,23.439 233.35,31.054 233.54,31.124 C234.004,31.3 234.299,31.736 234.313,32.222 L239.988,199.241 L346.518,313.253 C346.659,313.408 346.743,313.584 346.799,313.78 L354.294,342.904 C354.4,343.087 354.463,343.291 354.463,343.522 C354.463,344.198 353.915,344.753 353.24,344.753 L353.198,344.753" fill="#1A1919"/>
    <path d="M5.959,371.718 L291.78,449.322 C291.78,449.322 339.206,457.689 356.235,450.124 C373.202,442.579 378.215,426.611 378.215,426.611 C378.215,426.611 365.601,382.44 359.913,379.291 L340.366,383.073 C340.366,383.073 348.733,403.177 349.19,412.534 C349.823,425.346 348.557,429.128 337.834,429.128 C327.112,429.128 282.941,425.972 276.627,409.561 C270.328,393.163 275.375,379.291 275.375,379.291 L246.969,376.127 C246.969,376.127 250.766,389.381 242.561,398.838 C234.363,408.31 229.94,407.05 212.91,402.002 L98.702,374.861 C98.702,374.861 82.93,369.819 84.196,356.565 C84.85,349.64 87.346,331.338 87.346,331.338 L63.37,324.384 C63.37,324.384 64.635,344.577 60.219,350.892 C55.804,357.198 53.28,362.255 45.074,359.729 C36.869,357.198 27.405,352.15 17.315,354.049 C7.225,355.933 5.959,371.718 5.959,371.718 z" fill="url(#Gradient_2)"/>
    <path d="M7.295,370.811 L292.096,448.147 C292.223,448.162 314.603,452.064 333.833,452.064 C343.79,452.064 351.159,451.038 355.736,449.006 C370.691,442.382 376.12,428.861 376.935,426.576 C372.217,410.116 363.604,383.932 359.652,380.577 L342.053,383.987 C343.973,388.741 350.02,404.343 350.414,412.472 C350.793,420.093 350.498,424.733 347.889,427.476 C345.969,429.494 342.967,430.358 337.834,430.358 C337.293,430.358 282.984,429.479 275.496,410.003 C270.215,396.271 272.633,384.389 273.78,380.331 L248.544,377.533 C249.311,381.561 250.324,391.757 243.496,399.64 C234.665,409.827 229.764,408.26 212.566,403.162 L98.42,376.057 C98.167,375.972 81.637,370.522 82.987,356.446 C83.549,350.526 85.461,336.196 86.003,332.21 L64.67,326.044 C64.875,331.155 65.092,346.054 61.218,351.588 L60.121,353.185 C57.027,357.705 54.334,361.607 49.012,361.607 C47.69,361.607 46.284,361.382 44.723,360.89 C42.867,360.313 40.947,359.624 38.971,358.9 C33.494,356.917 27.833,354.851 21.878,354.851 C20.395,354.851 18.932,354.983 17.539,355.244 C9.862,356.686 7.759,367.458 7.295,370.811 z M333.833,454.511 L333.833,454.511 C314.385,454.511 291.801,450.567 291.569,450.518 L5.643,372.893 C5.074,372.737 4.694,372.196 4.743,371.612 C4.799,370.931 6.205,354.893 17.09,352.847 C18.637,352.558 20.24,352.417 21.878,352.417 C28.27,352.417 34.401,354.646 39.815,356.615 C41.742,357.311 43.612,357.993 45.44,358.556 C46.769,358.964 47.936,359.167 49.012,359.167 C53.047,359.167 55.178,356.073 58.11,351.799 L59.221,350.182 C62.652,345.31 62.498,329.967 62.16,324.468 C62.132,324.081 62.308,323.694 62.61,323.448 C62.919,323.188 63.334,323.111 63.721,323.217 L87.691,330.163 C88.274,330.333 88.64,330.901 88.555,331.499 C88.542,331.683 86.066,349.851 85.413,356.686 C84.252,368.814 98.934,373.659 99.082,373.701 L213.191,400.807 C221.052,403.147 226.213,404.659 230.186,404.659 C234.405,404.659 237.4,402.936 241.647,398.05 C249.332,389.185 245.844,376.584 245.816,376.464 C245.69,376.077 245.789,375.655 246.048,375.339 C246.309,375.037 246.703,374.868 247.11,374.917 L275.509,378.075 C275.882,378.116 276.206,378.327 276.41,378.644 C276.613,378.96 276.641,379.347 276.522,379.698 C276.473,379.839 271.712,393.374 277.766,409.132 C283.715,424.565 327.351,427.912 337.834,427.912 C342.172,427.912 344.725,427.265 346.131,425.788 C348.121,423.693 348.311,419.369 347.98,412.604 C347.531,403.549 339.311,383.741 339.241,383.538 C339.1,383.193 339.121,382.807 339.283,382.49 C339.458,382.167 339.768,381.942 340.126,381.872 L359.68,378.081 C359.961,378.046 360.264,378.081 360.51,378.222 C366.339,381.456 377.258,418.807 379.389,426.267 C379.459,426.499 379.453,426.752 379.382,426.963 C379.171,427.651 374.003,443.557 356.727,451.241 C351.848,453.407 344.141,454.511 333.833,454.511" fill="#1A1919"/>
    <path d="M76.602,295.464 L64.002,306.919 L91.086,340.147 L91.136,340.162 L144.13,335.753 C144.13,335.753 115.105,310.933 83.563,298.249 C81.194,297.292 78.874,296.372 76.602,295.464" fill="#1A1919"/>
    <path d="M384.944,348.642 C377.35,333.608 110.064,277.077 110.064,277.077 L100.199,273.998 L43.429,256.343 L42.417,324.384 L91.086,340.147 L96.079,303.936 C122.375,317.155 144.13,335.753 144.13,335.753 C144.13,335.753 165.59,362.275 181.987,369.201 C198.398,376.127 271.579,388.994 311.966,388.874 C352.347,388.748 381.379,375.494 381.379,375.494 C381.379,375.494 393.079,364.771 384.944,348.642" fill="#2D2118"/>
    <path d="M96.079,302.714 C96.269,302.714 96.452,302.756 96.627,302.847 C122.755,315.989 144.707,334.636 144.932,334.818 C145.297,335.24 166.532,361.347 182.465,368.076 C198.679,374.925 271.249,387.651 311.375,387.651 L311.959,387.651 C349.949,387.538 378.159,375.585 380.69,374.468 C381.991,373.194 391.089,363.526 383.854,349.197 C378.475,338.545 217.016,300.948 109.811,278.272 L44.625,257.987 L43.647,323.498 L90.088,338.545 L94.87,303.761 C94.926,303.374 95.165,303.037 95.509,302.847 C95.699,302.756 95.882,302.714 96.079,302.714 z M311.375,390.099 C271.016,390.099 197.884,377.237 181.508,370.326 C165.027,363.358 144.074,337.616 143.188,336.52 C143.118,336.491 122.235,318.745 97.049,305.8 L92.303,340.317 C92.254,340.675 92.043,340.991 91.741,341.182 C91.431,341.378 91.059,341.428 90.721,341.308 L42.037,325.558 C41.516,325.382 41.186,324.904 41.186,324.377 L42.206,256.321 C42.212,255.942 42.402,255.576 42.711,255.358 C43.021,255.126 43.415,255.069 43.788,255.183 L110.422,275.911 C137.732,281.677 378.383,332.976 386.027,348.101 C394.485,364.862 382.321,376.288 382.202,376.401 C382.096,376.478 381.991,376.549 381.885,376.604 C381.59,376.745 352.15,389.972 311.98,390.099 L311.375,390.099" fill="#1A1919"/>
    <path d="M368.75,311.776 C354.871,300.421 266.538,240.479 252.025,199.467 C237.52,158.446 240.669,29.732 240.669,27.854 C240.669,25.956 231.571,18.377 224.961,46.144 C224.961,46.144 232.907,188.85 240.1,206.821 C251.877,236.269 303.135,282.33 319.546,298.101 C335.943,313.88 347.277,320.51 347.277,320.51 C347.277,320.51 324.581,328.807 304.401,322.612 C284.207,316.417 188.934,229.743 177.571,209.557 C166.223,189.37 159.909,48.034 159.909,48.034 C159.909,48.034 162.088,30.014 152.329,26.694 C135.299,20.908 123.944,34.155 106.907,48.034 C89.877,61.921 78.515,72.644 78.515,72.644 C78.515,72.644 74.725,120.597 65.901,148.982 C57.055,177.382 46.973,202.616 43.816,218.395 C40.659,234.166 43.816,260.034 43.816,260.034 C43.816,260.034 86.713,283.378 105.008,294.107 C123.311,304.83 152.329,325.649 163.691,341.428 C175.054,357.198 208.312,362.683 238.152,367.936 C295.555,378.019 357.402,376.127 374.432,367.936 C382.715,363.948 385.155,361.622 385.155,353.416 C385.155,345.21 382.63,323.132 368.75,311.776" fill="#FFFFFE"/>
    <path d="M44.948,259.268 C50.052,262.045 88.654,283.097 105.627,293.053 C122.84,303.143 152.75,324.151 164.69,340.718 C175.461,355.686 207.658,361.341 236.064,366.318 L238.363,366.726 C263.514,371.155 291.66,373.581 317.584,373.581 C344.057,373.581 365.116,371.058 373.905,366.831 C381.92,362.964 383.938,360.995 383.938,353.416 C383.938,343.15 380.578,323.026 367.977,312.726 C365.819,310.947 361.719,307.909 356.516,304.042 C328.602,283.314 263.233,234.784 250.879,199.874 C237.956,163.368 238.855,59.756 239.432,28.86 L239.446,27.854 C239.369,27.651 238.483,26.694 237.14,26.694 C235.67,26.694 230.538,28.108 226.185,46.249 C226.508,52.042 234.313,189.081 241.232,206.378 C251.589,232.261 293.502,271.818 313.647,290.823 C316.27,293.292 318.547,295.443 320.39,297.222 C336.477,312.69 347.784,319.385 347.889,319.455 C348.29,319.694 348.543,320.144 348.487,320.615 C348.452,321.079 348.135,321.487 347.699,321.655 C347.193,321.831 335.296,326.12 320.91,326.12 C314.8,326.12 309.125,325.341 304.042,323.772 C283.448,317.451 187.5,229.686 176.509,210.154 C165.147,189.939 158.938,53.87 158.685,48.084 C158.713,47.718 160.64,30.808 151.949,27.854 C149.305,26.955 146.816,26.519 144.299,26.519 C134.16,26.519 125.708,33.726 115.014,42.831 C112.672,44.821 110.233,46.889 107.68,48.983 C92.486,61.358 81.707,71.329 79.696,73.214 C79.267,78.283 75.358,122.65 67.061,149.354 C63.623,160.394 59.931,171.159 56.676,180.658 C51.445,195.901 46.923,209.058 45.011,218.627 C42.199,232.689 44.512,255.245 44.948,259.268 z M317.584,376.021 L317.584,376.021 C291.52,376.021 263.233,373.581 237.941,369.124 L235.642,368.729 C205.366,363.407 174.055,357.916 162.707,342.145 C151.084,325.994 120.78,304.76 104.397,295.162 C86.327,284.565 43.668,261.342 43.232,261.102 C42.895,260.913 42.641,260.568 42.613,260.182 C42.473,259.12 39.463,233.94 42.621,218.155 C44.561,208.425 49.103,195.192 54.37,179.87 C57.618,170.386 61.316,159.635 64.734,148.631 C73.424,120.682 77.256,73.03 77.298,72.546 C77.327,72.243 77.46,71.962 77.678,71.751 C77.791,71.639 89.258,60.839 106.133,47.093 C108.686,45.011 111.098,42.951 113.432,40.968 C124.063,31.912 133.26,24.093 144.299,24.093 C147.083,24.093 149.84,24.564 152.737,25.542 C163.284,29.135 161.209,47.401 161.118,48.183 C161.188,49.385 167.559,189.257 178.64,208.959 C189.517,228.31 284.418,315.201 304.752,321.444 C309.604,322.936 315.032,323.694 320.91,323.694 C331.12,323.694 340.225,321.389 344.416,320.144 C340.331,317.444 330.972,310.771 318.688,298.979 C316.86,297.201 314.582,295.057 311.98,292.596 C291.703,273.464 249.522,233.659 238.968,207.271 C231.782,189.327 224.069,52.05 223.746,46.206 C223.738,46.087 223.746,45.975 223.766,45.854 C228.027,27.995 233.385,24.248 237.14,24.248 C239.889,24.248 241.893,26.393 241.893,27.854 L241.879,28.909 C241.464,50.826 240.065,162.011 253.178,199.06 C265.279,233.272 330.241,281.486 357.979,302.088 C363.196,305.962 367.324,309.028 369.524,310.827 C382.828,321.712 386.385,342.714 386.385,353.416 C386.385,362.135 383.657,364.835 374.959,369.025 C365.854,373.405 344.409,376.021 317.584,376.021" fill="#1A1919"/>
    <path d="M226.607,73.396 C210.463,68.882 171.215,57.175 154.565,45.764 C152.258,44.182 149.116,44.772 147.547,47.064 C145.973,49.37 146.549,52.514 148.855,54.096 C168.304,67.42 213.627,80.351 227.303,84.056 C227.057,80.315 226.818,76.743 226.607,73.396" fill="#FFFFFE"/>
    <path d="M151.717,46.101 C150.452,46.101 149.263,46.713 148.553,47.768 C147.969,48.611 147.751,49.624 147.941,50.636 C148.131,51.635 148.694,52.507 149.538,53.091 C168.128,65.823 210.815,78.269 225.967,82.432 C225.792,79.619 225.616,76.912 225.44,74.331 C208.783,69.642 170.378,58.089 153.875,46.769 C153.229,46.326 152.491,46.101 151.717,46.101 z M227.303,85.279 C227.198,85.279 227.092,85.265 226.987,85.244 C213.452,81.573 167.784,68.56 148.167,55.101 C146.774,54.151 145.853,52.725 145.551,51.072 C145.242,49.435 145.593,47.768 146.542,46.382 C148.434,43.626 152.491,42.866 155.254,44.765 C171.735,56.064 210.878,67.722 226.93,72.222 C227.444,72.362 227.795,72.799 227.831,73.311 C228.042,76.659 228.266,80.237 228.52,83.978 C228.547,84.365 228.379,84.752 228.077,84.998 C227.844,85.194 227.584,85.279 227.303,85.279" fill="#1A1919"/>
    <path d="M229.25,111.942 C201.336,103.033 162.341,88.388 155.725,79.683 C154.038,77.46 150.874,77.038 148.652,78.726 C146.422,80.413 146,83.577 147.688,85.792 C158.094,99.468 212.784,117.377 230.066,122.776 C229.785,119.135 229.518,115.514 229.25,111.942" fill="#FFFFFE"/>
    <path d="M151.696,78.916 C150.867,78.916 150.065,79.183 149.39,79.689 C147.709,80.976 147.379,83.374 148.659,85.054 C158.538,98.041 210.336,115.268 228.709,121.068 C228.499,118.311 228.288,115.569 228.098,112.842 C218.556,109.783 163.297,91.649 154.762,80.421 C154.016,79.464 152.913,78.916 151.696,78.916 z M230.066,123.986 C229.94,123.986 229.813,123.979 229.701,123.936 C208.199,117.222 157.082,100.144 146.718,86.53 C144.623,83.774 145.157,79.837 147.914,77.749 C150.585,75.717 154.664,76.279 156.688,78.944 C162.644,86.756 197.61,100.565 229.624,110.768 C230.094,110.929 230.432,111.351 230.467,111.843 C230.727,115.429 230.995,119.05 231.276,122.679 C231.311,123.079 231.135,123.479 230.819,123.726 C230.608,123.901 230.333,123.986 230.066,123.986" fill="#1A1919"/>
    <path d="M244.466,158.967 C244.551,158.749 244.635,158.53 244.691,158.292 C244.987,156.928 244.719,155.585 244.016,154.487 C244.178,155.999 244.319,157.49 244.466,158.967" fill="#FFFFFE"/>
    <path d="M244.466,160.183 L244.297,160.183 C243.75,160.106 243.313,159.655 243.257,159.093 C243.102,157.616 242.955,156.119 242.807,154.607 C242.75,154.045 243.095,153.518 243.637,153.342 C244.157,153.151 244.762,153.362 245.057,153.834 C245.957,155.255 246.246,156.928 245.873,158.565 C245.816,158.861 245.704,159.143 245.605,159.417 C245.416,159.881 244.973,160.183 244.466,160.183" fill="#1A1919"/>
    <path d="M232.344,150.269 C203.235,143.175 165.92,131.475 160.485,123.614 C158.896,121.314 155.76,120.745 153.454,122.334 C151.176,123.916 150.592,127.065 152.181,129.358 C161.526,142.858 213.684,156.245 233.329,160.886 C232.999,157.435 232.675,153.876 232.344,150.269" fill="#FFFFFE"/>
    <path d="M156.323,122.65 C155.549,122.65 154.79,122.896 154.157,123.339 C153.313,123.916 152.75,124.795 152.561,125.8 C152.385,126.799 152.603,127.818 153.194,128.662 C162.159,141.628 213.711,154.944 231.965,159.304 C231.705,156.667 231.452,153.975 231.206,151.247 C207.046,145.311 165.618,133.183 159.487,124.303 C158.77,123.269 157.588,122.65 156.323,122.65 z M233.329,162.102 C233.245,162.102 233.139,162.096 233.047,162.081 C211.602,157.019 160.668,143.765 151.183,130.054 C150.219,128.677 149.868,127.01 150.17,125.357 C150.473,123.712 151.394,122.284 152.772,121.335 C155.514,119.423 159.592,120.175 161.491,122.917 C166.307,129.886 200.929,141.353 232.625,149.081 C233.139,149.208 233.512,149.636 233.561,150.163 C233.884,153.764 234.215,157.314 234.545,160.767 C234.581,161.167 234.433,161.54 234.145,161.808 C233.913,162.005 233.631,162.102 233.329,162.102" fill="#1A1919"/>
    <path d="M235.291,179.322 C214.555,176.53 177.353,170.069 164.633,161.428 C162.334,159.866 159.199,160.464 157.624,162.764 C156.055,165.069 156.66,168.213 158.959,169.78 C175.377,180.933 220.441,187.599 236.62,189.679 C236.184,186.522 235.734,183.049 235.291,179.322" fill="#FFFFFE"/>
    <path d="M161.807,161.772 C160.542,161.772 159.346,162.397 158.643,163.452 C157.448,165.189 157.905,167.58 159.641,168.769 C175.504,179.54 219.604,186.198 235.199,188.259 C234.862,185.811 234.524,183.175 234.194,180.412 C220.131,178.478 178.12,172.065 163.952,162.44 C163.319,162.005 162.581,161.772 161.807,161.772 z M236.62,190.903 L236.465,190.889 C218.422,188.561 174.688,181.944 158.277,170.779 C155.422,168.839 154.67,164.936 156.618,162.081 C158.496,159.318 162.545,158.53 165.323,160.429 C176.488,168.002 208.875,174.534 235.459,178.12 C236,178.19 236.444,178.64 236.507,179.182 C236.943,182.901 237.386,186.353 237.829,189.503 C237.885,189.89 237.758,190.27 237.492,190.537 C237.259,190.769 236.943,190.903 236.62,190.903" fill="#1A1919"/>
    <path d="M240.1,206.821 L240.008,206.589 C223.049,205.964 189.088,203.679 172.973,195.269 C170.512,193.976 167.446,194.932 166.167,197.413 C164.873,199.874 165.829,202.933 168.304,204.213 C188.491,214.753 230.727,216.553 245.198,216.854 C243.117,213.36 241.366,209.999 240.1,206.821" fill="#FFFFFE"/>
    <path d="M170.652,195.916 C169.204,195.916 167.91,196.71 167.235,197.976 C166.272,199.839 166.996,202.159 168.867,203.144 C188.02,213.128 228.077,215.167 243.046,215.589 C241.457,212.791 240.149,210.175 239.165,207.784 C220.694,207.061 188.28,204.62 172.41,196.358 C171.862,196.057 171.264,195.916 170.652,195.916 z M245.198,218.064 L245.184,218.064 C228.59,217.72 187.823,215.779 167.727,205.296 C164.676,203.7 163.48,199.909 165.077,196.837 C166.167,194.77 168.29,193.476 170.652,193.476 C171.651,193.476 172.642,193.722 173.542,194.179 C189.215,202.37 221.938,204.705 240.058,205.373 C240.543,205.394 240.965,205.683 241.148,206.132 L241.232,206.378 C242.399,209.311 244.086,212.63 246.252,216.229 C246.477,216.608 246.477,217.08 246.252,217.467 C246.042,217.839 245.633,218.064 245.198,218.064" fill="#1A1919"/>
    <path d="M255.182,231.29 C228.534,237.787 184.532,222.831 184.061,222.663 C181.424,221.749 178.555,223.147 177.641,225.784 C176.742,228.429 178.133,231.29 180.777,232.197 C182.465,232.788 212.375,242.962 239.516,242.962 C247.532,242.962 255.309,242.061 262.038,239.776 C259.647,236.929 257.348,234.096 255.182,231.29" fill="#FFFFFE"/>
    <path d="M182.409,223.604 C180.785,223.604 179.329,224.639 178.809,226.186 C178.113,228.175 179.174,230.369 181.171,231.058 C182.422,231.494 212.418,241.745 239.516,241.745 C247.307,241.745 254.163,240.874 259.935,239.158 C258.023,236.858 256.293,234.714 254.69,232.654 C250.331,233.639 245.268,234.151 239.643,234.151 C214.049,234.151 183.969,223.921 183.667,223.815 C183.252,223.675 182.831,223.604 182.409,223.604 z M239.516,244.186 C212.01,244.186 181.649,233.8 180.37,233.357 C177.107,232.232 175.371,228.661 176.488,225.397 C177.592,222.198 181.255,220.392 184.461,221.51 C184.757,221.608 214.457,231.705 239.643,231.705 C245.409,231.705 250.542,231.171 254.894,230.108 C255.358,229.997 255.85,230.165 256.152,230.545 C258.17,233.167 260.399,235.924 262.973,238.982 C263.233,239.292 263.324,239.706 263.211,240.093 C263.113,240.479 262.811,240.796 262.431,240.923 C256.061,243.089 248.355,244.186 239.516,244.186" fill="#1A1919"/>
    <path d="M273.175,252.342 C257.292,258.628 222.832,252.356 210.547,249.318 C207.848,248.644 205.105,250.296 204.43,252.995 C203.77,255.702 205.415,258.444 208.129,259.112 C209.507,259.464 232.668,265.124 253.91,265.124 C263.24,265.124 272.211,264.028 278.8,260.905 C279.363,260.639 279.848,260.272 280.249,259.851 C277.879,257.39 275.509,254.873 273.175,252.342" fill="#FFFFFE"/>
    <path d="M209.332,250.394 C207.574,250.394 206.047,251.589 205.625,253.291 C205.373,254.282 205.527,255.315 206.062,256.194 C206.589,257.073 207.426,257.686 208.417,257.932 C208.649,257.987 232.415,263.901 253.91,263.901 C264.336,263.901 272.542,262.522 278.28,259.81 L278.441,259.718 C276.557,257.756 274.694,255.772 272.831,253.769 C268.232,255.421 261.967,256.265 254.184,256.265 C237.871,256.265 218.901,252.644 210.252,250.499 C209.957,250.415 209.633,250.394 209.332,250.394 z M253.91,266.334 C232.12,266.334 208.073,260.357 207.827,260.287 C206.209,259.9 204.838,258.881 203.966,257.439 C203.094,256.019 202.855,254.331 203.256,252.714 C204.072,249.409 207.539,247.308 210.85,248.138 C219.379,250.247 238.096,253.818 254.184,253.818 C262.108,253.818 268.344,252.939 272.725,251.21 C273.189,251.026 273.73,251.146 274.061,251.519 C276.402,254.044 278.765,256.546 281.127,259.007 C281.584,259.472 281.584,260.217 281.127,260.694 C280.6,261.243 279.996,261.693 279.313,262.01 C273.252,264.886 264.709,266.334 253.91,266.334" fill="#1A1919"/>
    <path d="M289.354,269.097 C275.559,273.576 249.782,274.651 239.77,274.651 C236.971,274.651 234.714,276.916 234.714,279.708 C234.714,282.491 236.971,284.749 239.77,284.749 C244.059,284.749 280.431,284.51 297.229,276.846 C294.663,274.37 292.026,271.776 289.354,269.097" fill="#FFFFFE"/>
    <path d="M289.009,270.482 C275.228,274.736 250.886,275.861 239.77,275.861 C237.646,275.861 235.93,277.599 235.93,279.708 C235.93,281.817 237.646,283.525 239.77,283.525 C243.714,283.525 277.823,283.321 295.063,276.444 C293.081,274.519 291.055,272.521 289.009,270.482 z M239.77,285.972 C236.303,285.972 233.491,283.159 233.491,279.708 C233.491,276.241 236.303,273.436 239.77,273.436 C248.755,273.436 275.137,272.436 288.974,267.936 C289.41,267.796 289.888,267.909 290.211,268.232 C292.883,270.904 295.527,273.491 298.073,275.967 C298.361,276.248 298.495,276.655 298.424,277.05 C298.354,277.443 298.101,277.78 297.735,277.956 C280.67,285.74 243.897,285.972 239.77,285.972" fill="#1A1919"/>
    <path d="M310.054,289.115 C299.113,292.511 273.534,293.284 263.971,293.284 C261.172,293.284 258.922,295.549 258.922,298.326 C258.922,301.11 261.172,303.374 263.971,303.374 C267.951,303.374 303.248,303.213 316.171,297.616 C316.811,297.335 317.367,296.94 317.824,296.448 C315.644,294.382 313.007,291.893 310.054,289.115" fill="#FFFFFE"/>
    <path d="M309.73,290.486 C298.227,293.77 272.929,294.494 263.971,294.494 C261.862,294.494 260.139,296.217 260.139,298.326 C260.139,300.436 261.862,302.158 263.971,302.158 C267.922,302.158 302.995,302.003 315.686,296.491 C315.777,296.448 315.862,296.413 315.946,296.357 C314.638,295.12 313.19,293.741 311.615,292.265 L309.73,290.486 z M263.971,304.599 C260.512,304.599 257.699,301.792 257.699,298.326 C257.699,294.866 260.512,292.061 263.971,292.061 C273.006,292.054 298.839,291.315 309.688,287.94 C310.11,287.814 310.574,287.92 310.883,288.222 L313.295,290.486 C315.285,292.37 317.092,294.072 318.66,295.569 C319.152,296.034 319.167,296.8 318.709,297.292 C318.125,297.904 317.437,298.39 316.664,298.733 C303.515,304.429 267.979,304.599 263.971,304.599" fill="#1A1919"/>
    <path d="M329.235,306.919 C306.833,313.057 282.991,312.233 282.73,312.213 C279.932,312.093 277.598,314.28 277.485,317.064 C277.387,319.842 279.545,322.197 282.33,322.303 C282.59,322.317 284.039,322.358 286.401,322.358 C295.513,322.358 318.238,321.585 338.699,314.568 C336.042,312.564 332.863,310.026 329.235,306.919" fill="#FFFFFE"/>
    <path d="M282.66,313.436 C280.459,313.436 278.793,315.046 278.702,317.12 C278.625,319.209 280.27,321.002 282.379,321.079 C282.632,321.093 284.066,321.143 286.401,321.143 C294.909,321.143 316.34,320.439 336.119,314.132 C333.785,312.318 331.373,310.35 328.926,308.261 C311.375,312.972 293.087,313.478 285.979,313.478 C283.912,313.478 282.716,313.436 282.66,313.436 z M286.401,323.589 C284.01,323.589 282.547,323.533 282.288,323.526 C278.821,323.393 276.135,320.468 276.262,317.015 C276.402,313.64 279.145,310.997 282.52,310.997 L282.78,310.997 C282.885,311.003 284.024,311.038 285.979,311.038 C293.081,311.038 311.46,310.525 328.905,305.737 C329.292,305.632 329.713,305.729 330.03,305.99 C333.243,308.761 336.407,311.319 339.43,313.584 C339.782,313.865 339.972,314.308 339.902,314.751 C339.832,315.201 339.522,315.573 339.093,315.714 C318.379,322.815 295.337,323.589 286.401,323.589" fill="#1A1919"/>
    <path d="M161.961,85.476 C191.092,76.877 233.104,51.655 235.073,50.46 C237.463,49.026 238.23,45.925 236.795,43.534 C235.354,41.151 232.253,40.378 229.863,41.826 C229.391,42.107 189.06,66.315 161.35,75.119 C161.533,78.374 161.737,81.834 161.961,85.476" fill="#B4B5B4"/>
    <path d="M162.616,75.998 C162.763,78.494 162.918,81.131 163.086,83.858 C192.083,74.894 232.696,50.475 234.44,49.42 C236.254,48.33 236.831,45.975 235.748,44.167 C234.686,42.409 232.26,41.791 230.488,42.866 C230.094,43.106 190.361,66.948 162.616,75.998 z M161.961,86.686 C161.723,86.686 161.469,86.615 161.258,86.468 C160.963,86.264 160.766,85.912 160.752,85.546 C160.527,81.919 160.316,78.444 160.12,75.189 C160.091,74.634 160.436,74.128 160.977,73.959 C188.491,65.226 228.829,41.018 229.23,40.771 C230.207,40.181 231.332,39.878 232.464,39.878 C234.686,39.878 236.69,41.003 237.829,42.901 C239.629,45.862 238.659,49.722 235.706,51.501 C233.919,52.584 191.683,77.981 162.313,86.644 C162.201,86.679 162.088,86.686 161.961,86.686" fill="#1A1919"/>
    <path d="M229.223,76.35 C228.78,76.722 190.016,109.115 164.303,118.979 C164.521,121.771 164.76,124.584 164.985,127.396 C165.66,127.811 166.371,128.226 167.137,128.647 C194.868,118.221 233.863,85.631 235.712,84.077 C237.85,82.284 238.131,79.106 236.338,76.968 C234.539,74.831 231.353,74.557 229.223,76.35" fill="#B4B5B4"/>
    <path d="M166.152,126.679 C166.504,126.89 166.855,127.101 167.235,127.311 C194.847,116.702 233.301,84.52 234.932,83.142 C235.712,82.487 236.198,81.567 236.282,80.54 C236.374,79.534 236.057,78.529 235.396,77.749 C234.088,76.194 231.564,75.97 230.01,77.284 C229.624,77.608 191.472,109.495 165.597,119.774 C165.78,122.073 165.962,124.373 166.152,126.679 z M167.137,129.872 C166.933,129.872 166.729,129.815 166.553,129.717 C165.758,129.288 165.027,128.858 164.338,128.436 C164.015,128.226 163.804,127.882 163.776,127.502 C163.551,124.683 163.312,121.87 163.086,119.064 C163.044,118.53 163.361,118.03 163.875,117.834 C189.376,108.061 228.048,75.737 228.435,75.407 C230.988,73.276 235.129,73.636 237.266,76.181 C238.342,77.46 238.855,79.092 238.715,80.751 C238.574,82.417 237.78,83.936 236.493,85.019 C234.848,86.404 195.599,119.261 167.566,129.787 C167.432,129.843 167.277,129.872 167.137,129.872" fill="#1A1919"/>
    <path d="M239.678,115.83 C237.745,113.811 234.552,113.77 232.542,115.71 C232.155,116.076 195.832,150.936 167.995,159.107 C168.164,160.64 168.332,162.145 168.5,163.636 C170.772,164.753 173.416,165.843 176.362,166.862 C205.506,155.612 237.969,124.499 239.559,122.967 C241.57,121.026 241.612,117.834 239.678,115.83" fill="#B4B5B4"/>
    <path d="M169.64,162.834 C171.566,163.748 173.802,164.662 176.333,165.569 C205.246,154.241 237.358,123.389 238.715,122.088 C239.446,121.37 239.861,120.421 239.868,119.401 C239.896,118.382 239.516,117.412 238.799,116.674 C237.386,115.197 234.862,115.155 233.392,116.583 C233.034,116.92 197.238,151.232 169.316,159.986 L169.64,162.834 z M176.362,168.093 C176.221,168.093 176.081,168.058 175.947,168.022 C172.881,166.94 170.188,165.843 167.959,164.726 C167.586,164.542 167.348,164.19 167.292,163.769 L166.785,159.248 C166.715,158.657 167.081,158.108 167.643,157.94 C195.135,149.861 231.339,115.183 231.698,114.831 C234.117,112.49 238.237,112.575 240.557,114.979 C241.717,116.182 242.35,117.764 242.315,119.436 C242.301,121.103 241.612,122.679 240.41,123.839 C239.024,125.175 206.258,156.632 176.791,168.002 C176.65,168.058 176.502,168.093 176.362,168.093" fill="#1A1919"/>
    <path d="M185.467,199.874 C211.546,188.167 241.577,162.292 243.074,161.006 C245.184,159.178 245.402,155.985 243.581,153.876 C241.752,151.78 238.56,151.549 236.451,153.377 C236.057,153.714 198.44,186.163 172.952,193.897 C173.057,194.425 173.163,194.911 173.268,195.409 C176.678,197.146 180.848,198.623 185.467,199.874" fill="#B4B5B4"/>
    <path d="M174.534,194.679 C177.473,196.106 181.108,197.413 185.362,198.588 C211.18,186.866 241.014,161.182 242.273,160.085 C243.862,158.706 244.038,156.28 242.652,154.678 C241.331,153.151 238.799,152.962 237.252,154.291 C236.887,154.622 200.268,186.22 174.534,194.679 z M185.467,201.104 C185.362,201.104 185.256,201.084 185.151,201.049 C180.194,199.713 176.01,198.186 172.712,196.499 C172.389,196.331 172.15,196.021 172.073,195.67 L171.756,194.123 C171.637,193.519 172.002,192.913 172.6,192.737 C197.884,185.053 235.284,152.779 235.649,152.456 C238.173,150.276 242.315,150.571 244.495,153.081 C246.758,155.697 246.477,159.655 243.862,161.92 C242.582,163.03 212.207,189.216 185.966,200.985 C185.812,201.056 185.643,201.104 185.467,201.104" fill="#1A1919"/>
    <path d="M201.027,227.486 C227.633,215.99 246.196,189.595 247.138,188.252 C248.727,185.952 248.151,182.803 245.866,181.221 C243.574,179.639 240.423,180.201 238.834,182.486 C238.602,182.838 215.919,215.14 186.867,221.565 C187.647,222.452 188.484,223.373 189.341,224.322 C192.288,225.201 196.302,226.326 201.027,227.486" fill="#B4B5B4"/>
    <path d="M190.016,223.253 C192.505,223.991 196.316,225.075 200.908,226.206 C227.071,214.739 245.374,188.659 246.14,187.549 C247.342,185.819 246.899,183.421 245.163,182.226 C243.496,181.06 240.993,181.522 239.84,183.189 C239.629,183.506 217.93,214.71 189.124,222.269 C189.426,222.6 189.721,222.916 190.016,223.253 z M201.027,228.71 C200.915,228.71 200.831,228.702 200.725,228.667 C195.698,227.436 191.563,226.256 188.99,225.482 C188.779,225.433 188.596,225.307 188.441,225.145 C187.577,224.202 186.733,223.268 185.953,222.374 C185.657,222.052 185.573,221.601 185.707,221.186 C185.84,220.771 186.177,220.462 186.592,220.378 C215.322,214.021 237.604,182.128 237.829,181.804 C239.727,179.061 243.805,178.317 246.547,180.222 C249.402,182.19 250.105,186.101 248.144,188.94 C247.349,190.08 228.499,216.939 201.499,228.611 C201.351,228.675 201.182,228.71 201.027,228.71" fill="#1A1919"/>
    <path d="M221.235,251.589 C239.488,236.401 253.607,215.709 254.282,214.696 C255.85,212.39 255.252,209.24 252.946,207.693 C250.64,206.132 247.504,206.729 245.936,209.044 C245.76,209.282 230.024,232.338 211.23,246.675 C212.488,247.884 213.761,249.107 215.047,250.345 C216.904,250.745 218.985,251.167 221.235,251.589" fill="#B4B5B4"/>
    <path d="M215.652,249.233 C217.249,249.564 219.006,249.936 220.905,250.288 C238.87,235.171 252.707,214.886 253.284,214.015 C253.853,213.171 254.064,212.144 253.875,211.139 C253.677,210.14 253.108,209.275 252.264,208.698 C250.555,207.553 248.081,208.045 246.949,209.726 C246.288,210.682 231.206,232.549 213.079,246.772 C213.922,247.589 214.788,248.404 215.652,249.233 z M221.235,252.799 L221.024,252.784 C218.753,252.362 216.658,251.94 214.788,251.54 C214.577,251.498 214.366,251.386 214.204,251.237 C212.91,249.986 211.645,248.756 210.379,247.546 C210.125,247.3 209.985,246.948 210.006,246.597 C210.035,246.245 210.196,245.908 210.492,245.697 C228.787,231.755 244.277,209.311 244.917,208.361 C246.801,205.584 250.858,204.796 253.635,206.674 C255.006,207.616 255.956,209.044 256.272,210.682 C256.588,212.334 256.237,213.993 255.309,215.386 C254.704,216.271 240.473,237.154 222.03,252.518 C221.797,252.714 221.531,252.799 221.235,252.799" fill="#1A1919"/>
    <path d="M250.19,274.405 C261.792,260.202 268.007,238.061 268.851,234.904 C269.561,232.218 267.965,229.455 265.272,228.737 C262.579,228.014 259.816,229.616 259.091,232.303 C256.785,240.972 249.058,262.804 238.532,272.1 C239.488,272.964 240.43,273.787 241.394,274.645 C243.792,274.616 246.801,274.546 250.19,274.405" fill="#B4B5B4"/>
    <path d="M240.346,272.085 L241.858,273.421 C244.016,273.394 246.66,273.323 249.585,273.21 C260.877,259.085 267.001,237.084 267.663,234.595 C267.922,233.61 267.803,232.584 267.283,231.69 C266.77,230.811 265.94,230.179 264.956,229.912 C262.923,229.37 260.807,230.63 260.273,232.619 C257.707,242.217 250.331,262.382 240.346,272.085 z M241.394,275.861 C241.105,275.861 240.803,275.756 240.585,275.56 L237.716,273.007 C237.463,272.768 237.309,272.436 237.316,272.093 C237.316,271.748 237.463,271.417 237.73,271.186 C248.158,261.968 255.829,239.776 257.91,231.986 C258.796,228.717 262.297,226.678 265.588,227.557 C267.206,227.985 268.555,229.019 269.392,230.475 C270.229,231.916 270.454,233.61 270.025,235.221 C268.907,239.404 262.719,260.976 251.139,275.165 C250.907,275.439 250.598,275.601 250.246,275.615 C246.829,275.77 243.805,275.841 241.401,275.861 L241.394,275.861" fill="#1A1919"/>
    <path d="M263.971,293.284 C266.573,293.284 270.383,293.228 274.743,293.073 C284.896,276.761 285.051,255.295 285.051,254.212 C285.051,251.428 282.801,249.163 280.002,249.163 C277.218,249.163 274.954,251.428 274.954,254.212 C274.954,254.472 274.799,279.342 262.368,292.792 C262.621,292.982 262.846,293.179 263.071,293.369 C263.374,293.319 263.662,293.284 263.971,293.284" fill="#B4B5B4"/>
    <path d="M280.002,250.394 C277.893,250.394 276.17,252.102 276.17,254.212 C276.17,254.466 276.037,277.991 264.618,292.061 C267.375,292.054 270.735,291.983 274.054,291.878 C283.722,275.861 283.834,255.104 283.834,254.212 C283.834,252.102 282.112,250.394 280.002,250.394 z M263.071,294.593 C262.79,294.593 262.508,294.494 262.291,294.311 L261.594,293.721 C261.334,293.51 261.172,293.193 261.159,292.862 C261.145,292.532 261.257,292.209 261.475,291.963 C273.547,278.885 273.738,254.466 273.738,254.212 C273.738,250.76 276.55,247.947 280.002,247.947 C283.455,247.947 286.274,250.76 286.274,254.212 C286.274,255.14 286.155,277.05 275.784,293.714 C275.573,294.058 275.193,294.276 274.792,294.283 C270.988,294.424 267.03,294.494 263.971,294.494 C263.746,294.494 263.514,294.529 263.296,294.564 L263.071,294.593" fill="#1A1919"/>
    <path d="M295.858,311.987 C311.045,293.714 306.215,271.221 305.955,270.096 C305.343,267.389 302.643,265.686 299.915,266.299 C297.194,266.925 295.485,269.624 296.111,272.346 C296.167,272.577 300.941,294.775 283.828,309.878 C284.938,310.701 286.014,311.495 287.069,312.248 C289.319,312.241 292.321,312.171 295.858,311.987" fill="#B4B5B4"/>
    <path d="M285.733,309.772 C286.324,310.209 286.893,310.624 287.469,311.038 C289.973,311.003 292.588,310.933 295.26,310.792 C309.674,293.038 304.977,271.291 304.766,270.37 C304.302,268.338 302.263,267.009 300.182,267.494 C298.129,267.966 296.835,270.011 297.299,272.071 C297.355,272.296 302.151,294.178 285.733,309.772 z M287.069,313.478 C286.823,313.478 286.57,313.394 286.366,313.253 C285.29,312.479 284.221,311.686 283.096,310.856 C282.801,310.631 282.618,310.294 282.604,309.928 C282.59,309.561 282.745,309.196 283.019,308.964 C299.535,294.389 294.972,272.823 294.922,272.612 C294.149,269.237 296.28,265.877 299.648,265.11 C303.008,264.351 306.383,266.503 307.143,269.835 C307.368,270.819 312.381,294.022 296.807,312.761 C296.589,313.021 296.273,313.183 295.928,313.197 C292.883,313.366 289.917,313.464 287.09,313.478 L287.069,313.478" fill="#1A1919"/>
    <path d="M304.401,322.612 C307.495,323.568 310.659,324.166 313.788,324.518 C324.44,309.042 324.587,293.721 324.587,292.982 C324.587,290.19 322.331,287.94 319.546,287.94 C316.762,287.94 314.491,290.19 314.491,292.982 C314.491,293.144 314.35,308.135 302.995,322.092 C303.494,322.303 303.972,322.478 304.401,322.612" fill="#B4B5B4"/>
    <path d="M304.999,321.522 C307.565,322.288 310.321,322.858 313.19,323.217 C323.251,308.226 323.371,293.601 323.371,292.982 C323.371,290.873 321.656,289.15 319.546,289.15 C317.422,289.15 315.714,290.873 315.714,292.982 C315.714,293.138 315.581,307.607 304.999,321.522 z M313.788,325.741 L313.647,325.733 C310.272,325.354 307.038,324.693 304.042,323.772 C303.571,323.632 303.065,323.448 302.538,323.217 C302.179,323.076 301.905,322.767 301.813,322.394 C301.722,322.021 301.813,321.628 302.045,321.318 C313.063,307.783 313.274,293.123 313.274,292.982 C313.274,289.522 316.086,286.718 319.546,286.718 C322.999,286.718 325.811,289.522 325.811,292.982 C325.811,293.644 325.691,309.386 314.793,325.206 C314.561,325.537 314.181,325.741 313.788,325.741" fill="#1A1919"/>
    <path d="M306.805,333.307 C305.174,333.307 304.12,333.222 303.909,333.201 C301.131,332.94 299.113,330.474 299.374,327.688 C299.633,324.925 302.094,322.894 304.865,323.146 C305.75,323.237 326.908,324.904 335.338,306.651 C336.499,304.12 339.5,303.009 342.032,304.183 C344.563,305.343 345.674,308.346 344.507,310.877 C335.071,331.323 314.469,333.307 306.805,333.307" fill="#FFFFFE"/>
    <path d="M304.387,324.342 C302.418,324.342 300.78,325.839 300.59,327.808 C300.386,329.917 301.926,331.788 304.035,331.991 C304.331,332.02 305.315,332.097 306.805,332.097 C314.8,332.097 334.347,329.981 343.396,310.37 C344.282,308.451 343.438,306.173 341.526,305.287 C339.656,304.415 337.307,305.308 336.449,307.157 C329.235,322.76 313.401,324.447 306.932,324.447 C305.702,324.447 304.907,324.377 304.752,324.37 C304.625,324.362 304.506,324.342 304.387,324.342 z M306.805,334.537 C305.203,334.537 304.148,334.438 303.852,334.425 C300.358,334.08 297.827,331.015 298.157,327.576 C298.495,324.151 301.504,321.6 304.977,321.936 C305.118,321.951 305.821,322.007 306.932,322.007 C312.937,322.007 327.618,320.46 334.227,306.131 C335.633,303.101 339.487,301.666 342.545,303.072 C344.064,303.775 345.217,305.026 345.801,306.595 C346.377,308.17 346.307,309.878 345.611,311.39 C335.971,332.272 315.264,334.537 306.805,334.537" fill="#1A1919"/>
  </g>
</svg>
