<?xml version="1.0" encoding="UTF-8" standalone="no"?>
<!-- Created with Inkscape (http://www.inkscape.org/) -->

<svg
   id="svg1"
   sodipodi:docname="1.svg"
   viewBox="0 0 60 60"
   sodipodi:version="0.32"
   version="1.0"
   y="0"
   x="0"
   inkscape:version="1.1 (c68e22c387, 2021-05-23)"
   xmlns:inkscape="http://www.inkscape.org/namespaces/inkscape"
   xmlns:sodipodi="http://sodipodi.sourceforge.net/DTD/sodipodi-0.dtd"
   xmlns="http://www.w3.org/2000/svg"
   xmlns:svg="http://www.w3.org/2000/svg"
   xmlns:rdf="http://www.w3.org/1999/02/22-rdf-syntax-ns#"
   xmlns:cc="http://creativecommons.org/ns#"
   xmlns:dc="http://purl.org/dc/elements/1.1/">
  <defs
     id="defs9" />
  <sodipodi:namedview
     id="base"
     bordercolor="#666666"
     inkscape:pageshadow="2"
     inkscape:window-width="1920"
     pagecolor="#ffffff"
     inkscape:zoom="6.9465337"
     inkscape:window-x="-11"
     borderopacity="1.0"
     inkscape:cx="5.830246"
     inkscape:cy="37.716653"
     inkscape:window-y="-11"
     inkscape:window-height="1046"
     inkscape:pageopacity="0.0"
     inkscape:pagecheckerboard="0"
     showgrid="false"
     inkscape:window-maximized="1"
     inkscape:current-layer="svg1" />
  <path
     id="path838"
     style="stroke-width:1pt;fill:#d40000"
     d="m57.264 32.325c0 2.301-0.189 4.482-0.565 6.543-0.377 2.05-0.863 3.812-1.459 5.287-0.377 0.921-0.748 1.606-1.114 2.055-0.366 0.45-0.853 0.675-1.459 0.675-0.638 0-1.172-0.188-1.601-0.565-0.418-0.376-0.627-0.873-0.627-1.49 0-0.136 0.157-0.701 0.47-1.695 0.314-0.983 0.602-1.95 0.863-2.902 0.262-0.952 0.502-2.113 0.722-3.483 0.22-1.371 0.33-2.845 0.33-4.425 0-1.893-0.168-3.682-0.503-5.366-0.334-1.694-0.732-3.273-1.192-4.738-0.46-1.464-0.69-2.259-0.69-2.385 0-0.617 0.209-1.108 0.627-1.474 0.419-0.366 0.952-0.55 1.601-0.55 0.617 0 1.108 0.225 1.474 0.675 0.367 0.439 0.733 1.125 1.099 2.055 0.596 1.454 1.082 3.212 1.459 5.272 0.376 2.061 0.565 4.231 0.565 6.511zm-22.405 4.597l4.268-4.597-2.589-2.793c-0.628-0.669-1.051-1.124-1.271-1.364-0.209-0.252-0.371-0.497-0.486-0.738-0.115-0.251-0.173-0.533-0.173-0.847 0-0.753 0.246-1.376 0.738-1.867 0.491-0.492 1.045-0.738 1.663-0.738 0.596 0 1.066 0.084 1.412 0.251 0.345 0.168 0.7 0.492 1.067 0.973l2.667 3.342 2.667-3.342c0.387-0.481 0.748-0.805 1.083-0.973 0.334-0.167 0.8-0.251 1.396-0.251 0.617 0 1.171 0.241 1.663 0.722s0.737 1.109 0.737 1.883c0 0.314-0.057 0.596-0.172 0.847-0.115 0.241-0.283 0.486-0.502 0.738-0.209 0.24-0.628 0.695-1.255 1.364l-2.589 2.793 4.267 4.597c0.272 0.293 0.502 0.612 0.691 0.957 0.198 0.335 0.298 0.732 0.298 1.193 0 0.763-0.246 1.38-0.738 1.851-0.491 0.46-1.098 0.69-1.82 0.69-0.47 0-0.857-0.099-1.161-0.298-0.292-0.198-0.648-0.528-1.067-0.988l-3.498-4.142-3.499 4.142c-0.366 0.418-0.711 0.737-1.036 0.957-0.324 0.22-0.721 0.329-1.192 0.329-0.722 0-1.328-0.23-1.82-0.69-0.491-0.471-0.737-1.088-0.737-1.851 0-0.45 0.083-0.832 0.251-1.146 0.178-0.313 0.423-0.648 0.737-1.004zm-7.797-4.597c0-1.475 0.088-2.96 0.266-4.456 0.178-1.495 0.419-2.855 0.722-4.079 0.314-1.224 0.659-2.306 1.035-3.248 0.408-0.972 0.785-1.668 1.13-2.086 0.345-0.429 0.826-0.644 1.444-0.644 0.658 0 1.192 0.184 1.6 0.55s0.612 0.857 0.612 1.474c0 0.126-0.23 0.921-0.691 2.385-0.46 1.465-0.857 3.044-1.192 4.738-0.335 1.684-0.502 3.473-0.502 5.366 0 1.475 0.11 2.924 0.329 4.346 0.22 1.423 0.461 2.61 0.722 3.562 0.262 0.952 0.549 1.909 0.863 2.871s0.471 1.537 0.471 1.726c0 0.617-0.209 1.114-0.628 1.49-0.418 0.377-0.946 0.565-1.584 0.565-0.607 0-1.083-0.214-1.428-0.643-0.345-0.419-0.727-1.114-1.146-2.087-0.292-0.763-0.559-1.564-0.8-2.4-0.23-0.827-0.444-1.768-0.643-2.825-0.188-1.066-0.335-2.159-0.439-3.279-0.094-1.129-0.141-2.238-0.141-3.326z" />
  <path
     id="path836"
     sodipodi:nodetypes="cc"
     style="stroke-linejoin:round;stroke:#333333;stroke-linecap:round;stroke-width:5;fill:#d40000"
     d="m21.692 14.367c-11.643 3.3-5.039 27.413-16.024 30.638"
     sodipodi:stroke-cmyk="(0.0000000 0.0000000 0.0000000 0.80000001)" />
  <path
     id="path837"
     style="stroke-linejoin:round;stroke:#333333;stroke-linecap:round;stroke-width:5;fill:#d40000"
     d="m6.6845 26.62h16.404"
     sodipodi:stroke-cmyk="(0.0000000 0.0000000 0.0000000 0.80000001)" />
  <metadata
     id="metadata6">
    <rdf:RDF>
      <cc:Work>
        <dc:format>image/svg+xml</dc:format>
        <dc:type
           rdf:resource="http://purl.org/dc/dcmitype/StillImage" />
        <cc:license
           rdf:resource="http://creativecommons.org/licenses/publicdomain/" />
        <dc:publisher>
          <cc:Agent
             rdf:about="http://openclipart.org/">
            <dc:title>Openclipart</dc:title>
          </cc:Agent>
        </dc:publisher>
        <dc:title>ftfunct</dc:title>
        <dc:date>2011-01-31T02:01:33</dc:date>
        <dc:description>Originally uploaded by Danny Allen for OCAL 0.18 this icon is part of the flat theme</dc:description>
        <dc:source>https://openclipart.org/detail/112681/ftfunct-by-anonymous</dc:source>
        <dc:creator>
          <cc:Agent>
            <dc:title>Anonymous</dc:title>
          </cc:Agent>
        </dc:creator>
        <dc:subject>
          <rdf:Bag>
            <rdf:li>flat</rdf:li>
            <rdf:li>icon</rdf:li>
            <rdf:li>theme</rdf:li>
          </rdf:Bag>
        </dc:subject>
      </cc:Work>
      <cc:License
         rdf:about="http://creativecommons.org/licenses/publicdomain/">
        <cc:permits
           rdf:resource="http://creativecommons.org/ns#Reproduction" />
        <cc:permits
           rdf:resource="http://creativecommons.org/ns#Distribution" />
        <cc:permits
           rdf:resource="http://creativecommons.org/ns#DerivativeWorks" />
      </cc:License>
    </rdf:RDF>
  </metadata>
  <path
     style="fill:#d40000;fill-opacity:0;stroke-width:0.143957"
     d="M 4.2986948,46.953425 C 3.5857557,46.43405 3.1565548,45.478468 3.2838602,44.693976 3.4460134,43.694742 3.8750113,43.242212 5.3077074,42.55911 7.3461588,41.587186 8.3399908,40.267747 9.334667,37.212804 c 0.5537378,-1.700691 1.67802,-6.995844 1.67802,-7.903153 0,-0.201647 -0.291937,-0.230794 -2.3392964,-0.233561 C 6.7080728,29.07349 6.2402293,29.0303 5.7469528,28.806262 4.2462789,28.124689 3.8105694,26.295018 4.8633898,25.095921 5.6064228,24.249653 5.9105271,24.184724 9.1310774,24.184724 h 2.8782086 l 0.156222,-0.611816 c 0.756665,-2.96336 1.919358,-5.73932 3.092403,-7.383196 1.249819,-1.751464 3.128996,-3.203254 5.047747,-3.899724 1.178299,-0.427699 1.723387,-0.429884 2.517233,-0.01009 1.801136,0.952463 1.63679,3.494453 -0.278054,4.300783 -0.364881,0.153649 -0.922012,0.388878 -1.238069,0.52273 -0.880432,0.37287 -2.082004,1.671254 -2.769422,2.992556 -0.544058,1.045751 -1.478478,3.529594 -1.478478,3.930043 0,0.110795 0.967045,0.159667 3.203036,0.161874 2.80637,0.0028 3.275749,0.03618 3.790178,0.269827 1.469804,0.667552 1.902653,2.409481 0.911754,3.669204 -0.655682,0.833566 -0.872249,0.874072 -5.091484,0.952334 l -3.880503,0.07198 -0.197426,1.151653 c -1.462281,8.530022 -2.661749,11.776403 -5.350786,14.482004 -1.531107,1.54054 -3.2098873,2.457898 -4.662424,2.547752 -0.8028371,0.04966 -0.9430297,0.0138 -1.4825182,-0.379213 z"
     id="path23636" />
  <path
     style="fill:#d40000;fill-opacity:0;stroke-width:0.143957"
     d="M 4.2986948,46.953425 C 3.5857557,46.43405 3.1565548,45.478468 3.2838602,44.693976 3.4460134,43.694742 3.8750113,43.242212 5.3077074,42.55911 7.3461588,41.587186 8.3399908,40.267747 9.334667,37.212804 c 0.5537378,-1.700691 1.67802,-6.995844 1.67802,-7.903153 0,-0.201647 -0.291937,-0.230794 -2.3392964,-0.233561 C 6.7080728,29.07349 6.2402293,29.0303 5.7469528,28.806262 4.2462789,28.124689 3.8105694,26.295018 4.8633898,25.095921 5.6064228,24.249653 5.9105271,24.184724 9.1310774,24.184724 h 2.8782086 l 0.156222,-0.611816 c 0.756665,-2.96336 1.919358,-5.73932 3.092403,-7.383196 1.249819,-1.751464 3.128996,-3.203254 5.047747,-3.899724 1.178299,-0.427699 1.723387,-0.429884 2.517233,-0.01009 1.801136,0.952463 1.63679,3.494453 -0.278054,4.300783 -0.364881,0.153649 -0.922012,0.388878 -1.238069,0.52273 -0.880432,0.37287 -2.082004,1.671254 -2.769422,2.992556 -0.544058,1.045751 -1.478478,3.529594 -1.478478,3.930043 0,0.110795 0.967045,0.159667 3.203036,0.161874 2.80637,0.0028 3.275749,0.03618 3.790178,0.269827 1.469804,0.667552 1.902653,2.409481 0.911754,3.669204 -0.655682,0.833566 -0.872249,0.874072 -5.091484,0.952334 l -3.880503,0.07198 -0.197426,1.151653 c -1.462281,8.530022 -2.661749,11.776403 -5.350786,14.482004 -1.531107,1.54054 -3.2098873,2.457898 -4.662424,2.547752 -0.8028371,0.04966 -0.9430297,0.0138 -1.4825182,-0.379213 z"
     id="path23675" />
  <path
     style="fill:#d40000;fill-opacity:0;stroke-width:0.143957"
     d="M 4.2986948,46.953425 C 3.5857557,46.43405 3.1565548,45.478468 3.2838602,44.693976 3.4460134,43.694742 3.8750113,43.242212 5.3077074,42.55911 7.3461588,41.587186 8.3399908,40.267747 9.334667,37.212804 c 0.5537378,-1.700691 1.67802,-6.995844 1.67802,-7.903153 0,-0.201647 -0.291937,-0.230794 -2.3392964,-0.233561 C 6.7080728,29.07349 6.2402293,29.0303 5.7469528,28.806262 4.2462789,28.124689 3.8105694,26.295018 4.8633898,25.095921 5.6064228,24.249653 5.9105271,24.184724 9.1310774,24.184724 h 2.8782086 l 0.156222,-0.611816 c 0.756665,-2.96336 1.919358,-5.73932 3.092403,-7.383196 1.249819,-1.751464 3.128996,-3.203254 5.047747,-3.899724 1.178299,-0.427699 1.723387,-0.429884 2.517233,-0.01009 1.801136,0.952463 1.63679,3.494453 -0.278054,4.300783 -0.364881,0.153649 -0.922012,0.388878 -1.238069,0.52273 -0.880432,0.37287 -2.082004,1.671254 -2.769422,2.992556 -0.544058,1.045751 -1.478478,3.529594 -1.478478,3.930043 0,0.110795 0.967045,0.159667 3.203036,0.161874 2.80637,0.0028 3.275749,0.03618 3.790178,0.269827 1.469804,0.667552 1.902653,2.409481 0.911754,3.669204 -0.655682,0.833566 -0.872249,0.874072 -5.091484,0.952334 l -3.880503,0.07198 -0.197426,1.151653 c -1.462281,8.530022 -2.661749,11.776403 -5.350786,14.482004 -1.531107,1.54054 -3.2098873,2.457898 -4.662424,2.547752 -0.8028371,0.04966 -0.9430297,0.0138 -1.4825182,-0.379213 z"
     id="path23714" />
  <path
     style="fill:#d40000;fill-opacity:1;stroke-width:0.143957"
     d="M 4.2986948,46.953425 C 3.5857557,46.43405 3.1565548,45.478468 3.2838602,44.693976 3.4460134,43.694742 3.8750113,43.242212 5.3077074,42.55911 7.3461588,41.587186 8.3399908,40.267747 9.334667,37.212804 c 0.5537378,-1.700691 1.67802,-6.995844 1.67802,-7.903153 0,-0.201647 -0.291937,-0.230794 -2.3392964,-0.233561 C 6.7080728,29.07349 6.2402293,29.0303 5.7469528,28.806262 4.2462789,28.124689 3.8105694,26.295018 4.8633898,25.095921 5.6064228,24.249653 5.9105271,24.184724 9.1310774,24.184724 h 2.8782086 l 0.156222,-0.611816 c 0.756665,-2.96336 1.919358,-5.73932 3.092403,-7.383196 1.249819,-1.751464 3.128996,-3.203254 5.047747,-3.899724 1.178299,-0.427699 1.723387,-0.429884 2.517233,-0.01009 1.801136,0.952463 1.63679,3.494453 -0.278054,4.300783 -0.364881,0.153649 -0.922012,0.388878 -1.238069,0.52273 -0.880432,0.37287 -2.082004,1.671254 -2.769422,2.992556 -0.544058,1.045751 -1.478478,3.529594 -1.478478,3.930043 0,0.110795 0.967045,0.159667 3.203036,0.161874 2.80637,0.0028 3.275749,0.03618 3.790178,0.269827 1.469804,0.667552 1.902653,2.409481 0.911754,3.669204 -0.655682,0.833566 -0.872249,0.874072 -5.091484,0.952334 l -3.880503,0.07198 -0.197426,1.151653 c -1.462281,8.530022 -2.661749,11.776403 -5.350786,14.482004 -1.531107,1.54054 -3.2098873,2.457898 -4.662424,2.547752 -0.8028371,0.04966 -0.9430297,0.0138 -1.4825182,-0.379213 z"
     id="path23753" />
  <path
     style="fill:#d40000;fill-opacity:0;stroke-width:0.143957"
     d="m 30.651131,46.458348 c -1.048403,-0.706519 -2.357124,-4.222522 -3.012695,-8.09389 -1.070293,-6.320449 -0.246223,-14.241441 1.928743,-18.539139 0.618609,-1.222363 0.822156,-1.49772 1.278879,-1.73006 1.059098,-0.538776 2.476945,0.02348 2.841013,1.126611 0.146027,0.442468 0.09139,0.743308 -0.48939,2.694477 -2.355327,7.912917 -2.375961,13.039697 -0.08269,20.545775 0.765593,2.505857 0.791219,2.853203 0.2603,3.528157 -0.657406,0.835756 -1.869502,1.04402 -2.724157,0.468069 z"
     id="path24615" />
  <path
     style="fill:#d40000;fill-opacity:0;stroke-width:0.143957"
     d="m 51.495251,46.485514 c -0.323908,-0.170951 -0.6419,-0.490696 -0.78367,-0.78799 -0.285303,-0.598287 -0.247164,-0.814062 0.7311,-4.136349 1.143055,-3.881935 1.312985,-5.077242 1.314009,-9.242898 0.0011,-4.286173 -0.229764,-5.706445 -1.749369,-10.764257 -0.598371,-1.991602 -0.574128,-2.45553 0.1621,-3.101946 0.517253,-0.454155 1.421747,-0.693884 1.980516,-0.524921 1.40418,0.424602 2.851426,3.96547 3.646152,8.92077 0.316128,1.97113 0.436478,6.926443 0.220591,9.082648 -0.475814,4.752258 -2.086952,9.794607 -3.3819,10.584267 -0.570176,0.347694 -1.447969,0.335664 -2.139529,-0.02932 z"
     id="path24654" />
  <path
     style="fill:#d40000;fill-opacity:0;stroke-width:0.143957"
     d="m 35.651621,41.397054 c -1.079831,-0.391944 -1.678294,-1.227546 -1.677105,-2.341653 10e-4,-0.951495 0.266786,-1.334742 2.878397,-4.150721 1.22723,-1.323266 2.252974,-2.462895 2.27943,-2.532509 0.02646,-0.06961 -0.841752,-1.081926 -1.929353,-2.249583 -1.0876,-1.167656 -2.096906,-2.317353 -2.242903,-2.554882 -0.533054,-0.86725 -0.258864,-2.116956 0.637058,-2.903585 0.602789,-0.529256 1.186051,-0.688087 2.050675,-0.558428 0.842974,0.126411 1.142588,0.391437 2.833667,2.506544 0.799976,1.000565 1.501693,1.873194 1.55937,1.939176 0.05768,0.06598 0.82669,-0.776166 1.708917,-1.871437 1.093447,-1.357499 1.793365,-2.094508 2.198785,-2.315306 1.437624,-0.782953 3.107844,-0.06026 3.591494,1.554022 0.283997,0.947895 0.01405,1.505464 -1.570313,3.243382 -0.769863,0.844481 -1.733198,1.903016 -2.140744,2.3523 l -0.740994,0.81688 2.425306,2.6331 c 2.647397,2.874219 2.98613,3.417425 2.811612,4.508805 -0.115305,0.721079 -0.642388,1.463625 -1.268901,1.787607 -0.630529,0.32606 -1.668297,0.314036 -2.257174,-0.02615 -0.265565,-0.153414 -1.390598,-1.347813 -2.500073,-2.65422 -1.109475,-1.306407 -2.060806,-2.392941 -2.11407,-2.41452 -0.05326,-0.02158 -0.882293,0.889855 -1.842287,2.025409 -1.939018,2.293615 -2.92342,3.26726 -3.30634,3.27021 -0.140327,0.0011 -0.384702,0.03223 -0.543054,0.06921 -0.158352,0.03699 -0.536982,-0.02316 -0.8414,-0.133651 z"
     id="path24693" />
  <path
     style="fill:#d40000;fill-opacity:0;stroke-width:0.143957"
     d="m 13.598184,35.548046 c -0.768679,-0.223522 -1.604731,-1.083072 -2.174191,-2.235296 -0.577105,-1.167693 -0.66313,-1.848928 -0.43007,-3.405748 0.107366,-0.717196 0.09286,-0.827751 -0.108606,-0.827751 -0.300207,0 -0.301526,-0.48257 -0.0045,-1.634722 0.496492,-1.92566 1.590498,-3.334273 2.867197,-3.691726 1.930733,-0.540572 3.897675,1.546771 4.314685,4.578798 0.100067,0.727577 0.09324,0.74765 -0.254227,0.74765 -0.315199,0 -0.36898,-0.07953 -0.458788,-0.678405 -0.304538,-2.030809 -1.617199,-3.640295 -2.968942,-3.640295 -1.640153,0 -3.011867,2.144028 -3.039335,4.75057 -0.0295,2.799573 1.149702,4.836785 2.89686,5.004665 l 0.694234,0.06671 -0.141986,0.559383 c -0.153205,0.603581 -0.31912,0.660099 -1.192364,0.40617 z"
     id="path24732" />
</svg>
