<?xml version="1.0" encoding="UTF-8" standalone="no"?>
<svg xmlns:rdf="http://www.w3.org/1999/02/22-rdf-syntax-ns#" xmlns="http://www.w3.org/2000/svg" height="366.89mm" width="366.89mm" version="1.1" xmlns:cc="http://creativecommons.org/ns#" xmlns:xlink="http://www.w3.org/1999/xlink" viewBox="0 0 1300.0023 1300.0059" xmlns:dc="http://purl.org/dc/elements/1.1/">
<defs>
<radialGradient id="c" gradientUnits="userSpaceOnUse" cy="1002.4" cx="-149.45" gradientTransform="matrix(.61453 -1.9583e-7 1.9782e-7 .61538 -57.607 385.52)" r="650">
<stop stop-color="#f0f" offset="0"/>
<stop stop-color="#f0f" offset=".5"/>
<stop stop-color="#fff" offset="1"/>
</radialGradient>
<filter id="e" style="color-interpolation-filters:sRGB" height="1.0611" width="1.0395" y="-.030574" x="-.019753">
<feGaussianBlur stdDeviation="10.191406"/>
</filter>
<radialGradient id="b" gradientUnits="userSpaceOnUse" cy="1002.4" cx="-149.45" gradientTransform="translate(0 .000023131)" r="650">
<stop stop-color="#ffb1fa" offset="0"/>
<stop stop-color="#b0b" offset="1"/>
</radialGradient>
<radialGradient id="a" gradientUnits="userSpaceOnUse" cy="1002.4" cx="-150" gradientTransform="translate(0 -.000076474)" r="200">
<stop stop-color="#ffd100" offset="0"/>
<stop stop-color="#ff8000" offset="1"/>
</radialGradient>
<filter id="d" style="color-interpolation-filters:sRGB" height="1.144" width="1.144" y="-0.072" x="-0.072">
<feGaussianBlur stdDeviation="12"/>
</filter>
</defs>
<g transform="translate(799.45 -352.36)">
<g>
<path d="m-149.45 352.36c-83.149-0.00003-184.32 99.063-150.55 200l87.123 260.4a200 200 0 0 0 -0.021 0.008 200 200 0 0 0 -16.811 6.4219 200 200 0 0 0 -9.0156 4.0332 200 200 0 0 0 -0.033 0.0156l-122.43-245.53c-26.716-53.579-83.203-76.546-137.98-75.924-42.605 0.484-84.176 15.238-109.9 40.961-58.795 58.795-60.287 200.38 34.965 247.88l245.44 122.38a200 200 0 0 0 -7.8516 17.793 200 200 0 0 0 -2.9219 8.0078l-260.01-86.99c-0.8461-0.28307-1.6913-0.55612-2.5371-0.82031-0.1686-0.0527-0.3372-0.10212-0.5058-0.15234-0.1863-0.0555-0.3726-0.11156-0.5586-0.16797-0.528-0.16004-1.0562-0.32184-1.584-0.47461-0.2833-0.082-0.5664-0.15838-0.8496-0.23828-0.5764-0.16264-1.1524-0.32643-1.7285-0.48047-0.2403-0.0642-0.4805-0.12447-0.7207-0.18555-0.1264-0.0321-0.2527-0.0651-0.3789-0.0976-0.4722-0.12183-0.9441-0.24522-1.4161-0.36133-0.3992-0.0982-0.7982-0.19106-1.1972-0.28516-0.4715-0.11123-0.9429-0.22255-1.4141-0.32812-0.3927-0.088-0.7852-0.17176-1.1777-0.25586-0.4728-0.10129-0.9455-0.20123-1.418-0.29688-0.3719-0.0753-0.7435-0.14695-1.1152-0.21875-0.4742-0.0916-0.948-0.1816-1.4219-0.26758-0.1173-0.0213-0.2343-0.0417-0.3516-0.0625-0.2877-0.0509-0.5757-0.10107-0.8632-0.15039-0.3342-0.0573-0.668-0.11344-1.002-0.16796-1.0101-0.16491-2.0187-0.29962-3.0273-0.43946-0.4549-0.0631-0.9107-0.14124-1.3653-0.19922-0.1758-0.0224-0.3515-0.0428-0.5273-0.0644-0.7238-0.0892-1.4453-0.15302-2.168-0.23047-0.94-0.0995-1.8803-0.20703-2.8184-0.28516-0.044-0.004-0.088-0.006-0.1328-0.01-1.5565-0.12798-3.1097-0.22869-4.6601-0.29883-1.557-0.0705-3.112-0.11756-4.6621-0.13086-0.868-0.007-1.734-0.006-2.5996 0.004-84.638 0.99548-157.8 85.763-157.8 157.22 0 83.149 99.063 184.32 200 150.55l260.07-87.01a200 200 0 0 0 0.01 0.02 200 200 0 0 0 6.291 16.355 200 200 0 0 0 4.2598 9.5196l-245.29 122.3c-95.252 47.494-93.76 189.08-34.965 247.88 58.795 58.795 200.38 60.289 247.88-34.963l122.49-245.67a200 200 0 0 0 17.504 7.666 200 200 0 0 0 8.1406 2.9707 200 200 0 0 0 0.1465 0.053l-87.09 260.4c-33.77 100.94 67.406 200 150.55 200 83.149 0 184.32-99.063 150.55-200l-87.225-260.8a200 200 0 0 0 0.014 -0.01 200 200 0 0 0 16.139 -6.2324 200 200 0 0 0 9.6368 -4.3125l122.63 245.94c47.494 95.252 189.08 93.758 247.88 34.963 58.795-58.795 60.289-200.38-34.963-247.88l-246.33-122.82a200 200 0 0 0 7.7421 -17.639 200 200 0 0 0 2.9375 -8.0469l260.99 87.32c100.94 33.77 200-67.406 200-150.55 0-71.456-73.161-156.22-157.8-157.22-0.8657-0.0102-1.7317-0.0112-2.5997-0.004-1.5502 0.0133-3.1048 0.0604-4.6621 0.13086-0.1113 0.005-0.2225 0.006-0.3339 0.0117-1.4395 0.0689-2.8816 0.16808-4.3262 0.28711-0.044 0.004-0.089 0.006-0.1328 0.01-0.1876 0.0156-0.3749 0.0285-0.5625 0.0449-0.7508 0.0659-1.5039 0.15964-2.2559 0.24023-0.7227 0.0775-1.4442 0.14124-2.168 0.23047-0.6299 0.0777-1.2618 0.17626-1.8925 0.26367-1.0086 0.13981-2.0168 0.27445-3.0274 0.43946-0.6213 0.10143-1.2432 0.2073-1.8652 0.31835-0.1173 0.0208-0.2343 0.0412-0.3516 0.0625-0.4738 0.086-0.9477 0.17598-1.4219 0.26758-0.3715 0.0718-0.7434 0.14348-1.1152 0.21875-0.4725 0.0957-0.9451 0.19559-1.418 0.29688-0.3924 0.0841-0.785 0.16788-1.1777 0.25586-0.4712 0.10557-0.9426 0.21689-1.4141 0.32812-0.3991 0.0942-0.7979 0.18692-1.1972 0.28516-0.5982 0.14716-1.1964 0.30263-1.7949 0.45898-0.2403 0.0611-0.4805 0.12133-0.7207 0.18555-0.5762 0.15404-1.1521 0.31783-1.7286 0.48047-0.2831 0.0799-0.5663 0.15629-0.8496 0.23828-0.7138 0.20661-1.4284 0.42265-2.1425 0.64258-0.1687 0.0502-0.3373 0.0997-0.5059 0.15234-0.8458 0.26419-1.691 0.53725-2.5371 0.82031l-261.08 87.44a200 200 0 0 0 -6.3887 -16.664 200 200 0 0 0 -4.0586 -9.0703 200 200 0 0 0 -0.02 -0.041l246.2-122.76c95.252-47.494 93.758-189.08 34.963-247.88-25.723-25.723-67.294-40.477-109.9-40.961-54.778-0.62228-111.26 22.345-137.98 75.924l-122.71 246.1a200 200 0 0 0 -17.916 -7.9219 200 200 0 0 0 -7.7793 -2.8398l87.222-260.68c33.77-100.94-67.404-200-150.55-200zm-42.664 454.73a200 200 0 0 0 -2.457 0.55078 200 200 0 0 1 2.457 -0.55078zm92.059 1.8633a200 200 0 0 1 1.4785 0.37891 200 200 0 0 0 -1.4785 -0.37891zm-147.58 19.127a200 200 0 0 0 -4.5468 2.6074 200 200 0 0 1 4.5468 -2.6074zm-71.193 67.473a200 200 0 0 0 -0.047 0.0742 200 200 0 0 1 0.047 -0.0742zm340.48 4.6152a200 200 0 0 1 2.9453 5.1328 200 200 0 0 0 -2.9453 -5.1328zm-364.78 51.129a200 200 0 0 0 -0.4727 1.8535 200 200 0 0 1 0.4727 -1.8535zm387.71 5.95a200 200 0 0 1 0.7304 3.25 200 200 0 0 0 -0.7304 -3.25zm-389.8 87.473a200 200 0 0 0 0.666 2.9668 200 200 0 0 1 -0.666 -2.9668zm388.79 6.8847a200 200 0 0 1 -0.5547 2.1738 200 200 0 0 0 0.5547 -2.1738zm-368.39 47.459a200 200 0 0 0 3.6016 6.2813 200 200 0 0 1 -3.6016 -6.2813zm344.11 9.3184a200 200 0 0 1 -0.3789 0.6191 200 200 0 0 0 0.3789 -0.6191zm-275.73 63.031a200 200 0 0 0 0.5938 0.3633 200 200 0 0 1 -0.5938 -0.3633zm209.4 2.1543a200 200 0 0 1 -7.0586 4.0488 200 200 0 0 0 7.0586 -4.0488zm-154.02 21.918a200 200 0 0 0 2.4765 0.6328 200 200 0 0 1 -2.4765 -0.6328zm96.867 1.3086a200 200 0 0 1 -3.7852 0.8476 200 200 0 0 0 3.7852 -0.8476z" fill="#fff"/>
<path d="m-149.45 602.36-30.475 202.42c-11.192 1.7249-22.217 4.3973-32.957 7.9883-8.8605 2.8856-17.509 6.387-25.881 10.479-10.15 5.0844-19.85 11.024-28.992 17.754l-164.54-121.48 121.39 164.43c-6.7391 9.1613-12.684 18.881-17.772 29.053-4.1887 8.3384-7.7886 16.96-10.774 25.801-3.5995 10.802-6.27 21.892-7.9824 33.148l-202.03 30.414 201.92 30.4c1.7674 11.26 4.4941 22.349 8.1504 33.144 2.911 8.8673 6.4392 17.52 10.559 25.895 5.1402 10.15 11.137 19.844 17.926 28.975l-121.4 164.43 164.52-121.46c9.1755 6.6831 18.903 12.573 29.078 17.606 8.3375 4.1596 16.956 7.7314 25.791 10.689 10.749 3.5334 21.779 6.1483 32.971 7.8164l30.488 202.51 30.494-202.55c11.154-1.7952 22.135-4.5322 32.826-8.1816 8.8312-2.9131 17.448-6.4386 25.789-10.551 10.032-5.1008 19.615-11.039 28.648-17.752l165.08 121.88-121.94-165.17c6.6049-9.0799 12.433-18.7 17.424-28.758 4.1517-8.3036 7.7202-16.886 10.68-25.686 3.5224-10.643 6.1436-21.564 7.836-32.646l203.17-30.6-203.04-30.61c-1.757-11.08-4.441-22-8.026-32.64-2.886-8.82-6.383-17.43-10.466-25.77-5.046-10.04-10.927-19.62-17.582-28.67l121.96-165.19-165.08 121.88c-9.0657-6.6609-18.677-12.545-28.732-17.59-8.3046-4.1801-16.89-7.7761-25.695-10.762-10.696-3.589-21.677-6.2665-32.824-8.0039z" filter="url(#e)" fill="url(#c)"/>
<ellipse rx="200" ry="200" filter="url(#d)" cy="1002.4" cx="-150" fill="url(#a)"/>
<path d="m-149.45 352.36c-83.149-0.00003-184.32 99.063-150.55 200l87.123 260.4a200 200 0 0 1 32.957 -7.9883l30.475-202.42 30.514 202.68a200 200 0 0 1 32.824 8.0039l87.213-260.67c33.77-100.94-67.404-200-150.55-200zm-349.72 149.42c-42.605 0.484-84.176 15.238-109.9 40.961-58.795 58.795-60.287 200.38 34.965 247.88l245.44 122.38a200 200 0 0 1 17.772 -29.053l-121.4-164.43 164.54 121.48a200 200 0 0 1 28.992 -17.754l-122.43-245.54c-26.716-53.579-83.203-76.546-137.98-75.924zm699.44 0c-54.778-0.62228-111.26 22.345-137.98 75.924l-122.71 246.1a200 200 0 0 1 28.732 17.59l165.08-121.88-121.96 165.19a200 200 0 0 1 17.582 28.666l246.2-122.75c95.25-47.49 93.76-189.08 34.96-247.88-25.72-25.72-67.29-40.47-109.89-40.96zm-839.32 343.36c-0.868-0.007-1.734-0.006-2.5996 0.004-84.638 0.99548-157.8 85.763-157.8 157.22 0 83.149 99.063 184.32 200 150.55l260.07-87.01a200 200 0 0 1 -8.1504 -33.144l-201.92-30.4 202.03-30.414a200 200 0 0 1 7.9825 -33.148l-260.01-86.99c-13.307-4.4521-26.582-6.5582-39.602-6.6699zm979.2 0c-13.019 0.11169-26.294 2.2179-39.602 6.6699l-261.07 87.34a200 200 0 0 1 8.0215 32.641l203.05 30.568-203.16 30.588a200 200 0 0 1 -7.836 32.646l260.99 87.32c100.94 33.77 200-67.406 200-150.55-0.0001-71.456-73.161-156.22-157.8-157.22-0.8657-0.0102-1.7317-0.0113-2.5997-0.004zm-311.27 246.16a200 200 0 0 1 -17.424 28.758l121.94 165.17-165.08-121.88a200 200 0 0 1 -28.648 17.752l122.63 245.94c47.494 95.252 189.08 93.758 247.88 34.963 58.795-58.795 60.289-200.38-34.963-247.88l-246.33-122.82zm-357.7 0.5196-245.29 122.3c-95.252 47.494-93.76 189.08-34.965 247.88 58.795 58.795 200.38 60.289 247.88-34.963l122.49-245.67a200 200 0 0 1 -29.078 -17.606l-164.52 121.46 121.4-164.43a200 200 0 0 1 -17.926 -28.975zm242.69 99.826a200 200 0 0 1 -32.826 8.1816l-30.494 202.55-30.488-202.51a200 200 0 0 1 -32.971 -7.8164l-87.09 260.4c-33.77 100.94 67.406 200 150.55 200 83.149 0 184.32-99.063 150.55-200l-87.225-260.8z" fill="url(#b)"/>
</g>
</g>
</svg>
